<svg width="3566" height="4313" xmlns="http://www.w3.org/2000/svg" xmlns:xlink="http://www.w3.org/1999/xlink">
 <!-- Generator: Sketch 42 (36781) - http://www.bohemiancoding.com/sketch -->
 <title>Group 2</title>
 <desc>Created with Sketch.</desc>
 <defs>
  <rect rx="83" height="874" width="872.746476" y="0" x="0.794677" id="path-1"/>
  <mask height="874" width="872.746476" y="0" x="0" maskUnits="objectBoundingBox" maskContentUnits="userSpaceOnUse" id="mask-2">
   <use id="svg_1" xlink:href="#path-1"/>
  </mask>
  <linearGradient id="svg_28">
   <stop id="svg_30" stop-color="rgb(204,204,204)" offset="0"/>
   <stop id="svg_29" stop-color="rgb(204,204,204)" offset="1"/>
  </linearGradient>
  <radialGradient id="svg_27" gradientUnits="userSpaceOnUse" gradientTransform="matrix(0.05636303126811981,0,0,0.027617787942290306,-17.957698822021484,560.4895629882812)" cx="96.7726" cy="172.721" r="44.4467" fx="96.7726" fy="172.721" xlink:href="#svg_28"/>
 </defs>
 <g>
  <title>background</title>
  <rect fill="none" id="canvas_background" height="402" width="582" y="-1" x="-1"/>
 </g>
 <g>
  <title>Layer 1</title>
  <g fill-rule="evenodd" fill="none" id="Page-2">
   <g id="Group-2">
    <rect rx="300" height="3145" width="3566" y="1163.99811" x="0" fill="#000000" fill-opacity="0.5" id="Rectangle-3"/>
    <g id="Group-4">
     <path fill="#FFFFFF" id="dotino" d="m1601.321655,853.688904l0,-43.455933c0,-15.802124 0.789673,-29.233948 3.158813,-47.406433c-29.219238,62.418518 -86.078247,97.183228 -161.100586,97.183228c-115.297607,0 -186.37146,-80.590942 -186.37146,-213.329041c0,-131.157837 72.653198,-214.11908 187.950806,-214.11908c72.65332,0 128.722656,33.974609 159.52124,95.602966c-2.369141,-20.542786 0.789795,-501.121441 -3.158813,-529.565311l38.695801,0c-3.948608,28.443871 0,771.3382 0,771.3382c0,36.344971 1.579468,54.517456 5.527954,83.751404l-44.223755,0zm-303.248413,-206.218018c0,112.985352 52.910645,177.77417 145.306641,177.77417c97.923828,0 158.731445,-68.73938 158.731445,-179.354431c0,-109.03479 -60.807617,-178.56427 -157.1521,-178.56427c-91.606201,0 -146.885986,67.949219 -146.885986,180.144531zm598.864868,221.772156c-123.194702,0 -201.375854,-82.961304 -201.375854,-214.119141c0,-131.947937 77.391602,-215.69931 199.006836,-215.69931c121.615234,0 199.006592,83.751373 199.006592,214.11911c0,131.157837 -77.391357,215.699341 -196.637573,215.699341zm-0.078491,-394.962494c-99.503418,0 -160.311035,68.739349 -160.311035,180.934601c0,110.615051 60.807617,178.56427 158.731567,178.56427c97.92395,0 157.152222,-67.949219 157.152222,-180.14447c0,-109.824951 -60.017944,-179.354401 -155.572754,-179.354401zm338.031982,7.37146l0,296.036285c0,26.930908 -4.460205,82.028015 -4.460205,82.028015l49.111572,0c0,0 -5.166016,-54.692688 -5.166016,-82.028015l0,-296.036285l39.485352,0c37.90625,0 45.677979,1.328857 71.738281,5.279388l0,-44.246033c-26.850098,3.950562 -33.832031,4.201904 -70.948486,4.201904l-40.275146,0l0,-33.184509c0,-31.604309 -3.948486,-387.064468 0,-409.977579l-39.485352,0c3.948486,24.493328 0,379.953501 0,409.977579l0,33.184509l-32.378174,0c-34.747314,0 -60.143311,-0.251343 -81.465332,-4.201904l0,44.246033c25.270752,-3.160431 54.615234,-5.279388 81.465332,-5.279388l32.378174,0zm241.460449,-34.026031c3.948486,27.653778 5.527832,47.406464 5.527832,82.171204l0,248.09375c0,28.443848 -1.579346,48.986633 -5.527832,82.171143l50.541504,0c-3.94873,-30.024048 -5.528076,-49.776794 -5.528076,-82.171143l0,-247.30365c0,-36.34494 1.579346,-56.097656 5.528076,-82.961304l-50.541504,0zm198.712158,0.489777l-45.013428,0c4.738281,30.024109 6.317871,52.147095 6.317871,82.171173l0,248.09375c0,32.394409 -1.57959,53.727295 -6.317871,82.171204l50.541504,0c-3.94873,-30.024109 -5.528076,-49.776794 -5.528076,-82.171204l0,-150.120422c0,-39.505371 31.588379,-95.602966 71.073975,-126.417175c22.111816,-17.382355 52.9104,-28.443878 79.760498,-28.443878c71.073975,0 108.97998,40.295502 108.97998,116.145782l0,188.835693c0,31.604309 -1.579346,52.147095 -5.528076,82.171204l50.541504,0c-3.94873,-24.493347 -5.527832,-43.455933 -5.527832,-81.381104l0,-198.316956c0,-88.492035 -52.910645,-141.42923 -141.358154,-141.42923c-53.700195,0 -94.765137,18.172455 -128.722656,56.097626c-15.004395,16.592224 -22.111816,28.443848 -31.588379,52.147095c1.579346,-14.221924 2.369141,-24.493347 2.369141,-34.764709l0,-64.788849zm545.644287,411.900726c-123.19458,0 -201.375732,-82.961304 -201.375732,-214.119141c0,-131.947937 77.391357,-215.699341 199.006592,-215.699341c121.615234,0 199.006836,83.751404 199.006836,214.119141c0,131.157837 -77.391602,215.699341 -196.637695,215.699341zm-0.078369,-394.962524c-99.503418,0 -160.311035,68.73938 -160.311035,180.934631c0,110.615051 60.807617,178.56427 158.731689,178.56427c97.923828,0 157.151855,-67.949219 157.151855,-180.144531c0,-109.82489 -60.017578,-179.35437 -155.57251,-179.35437z"/>
     <ellipse ry="51.258753" rx="51.232925" cy="297.95042" cx="2502.993153" fill="#FF4444" stroke-width="5" stroke="#FFFFFF" id="Oval-2"/>
    </g>
    <g stroke="#FFFFFF" id="Group-3">
     <path fill="#007E33" stroke-width="5" id="Combined-Shape" d="m774.958984,671.407288l0,9.041443c2.236694,19.352356 18.657104,34.376099 38.581482,34.376099c21.451355,0 38.841064,-17.414734 38.841064,-38.896851c0,-21.482117 -17.389709,-38.896851 -38.841064,-38.896851c-19.924377,0 -36.344788,15.023743 -38.581482,34.37616z"/>
     <path fill="#FF8800" stroke-width="5" id="Combined-Shape" d="m620.104126,675.721069l0,0.413879c0.111267,21.386902 17.45813,38.68988 38.840515,38.68988c20.582336,0 37.425415,-16.032288 38.756348,-36.306946l0,-5.17981c-1.330933,-20.274597 -18.174011,-36.306946 -38.756348,-36.306946c-21.382385,0 -38.729248,17.302979 -38.840515,38.689941z"/>
     <path fill="#00C851" stroke-width="5" id="Combined-Shape" d="m543.362305,673.329895l0,5.196167c-1.334839,20.270752 -18.17627,36.298767 -38.755768,36.298767c-21.451324,0 -38.841064,-17.414734 -38.841064,-38.896851c0,-21.482117 17.38974,-38.896851 38.841064,-38.896851c20.579498,0 37.420929,16.028015 38.755768,36.298767z"/>
     <path fill="#FF8800" stroke-width="5" id="Combined-Shape" d="m387.991333,673.329895l0,5.196167c-1.278381,19.412048 -16.777222,34.933228 -36.161438,36.213379l-5.188721,0c-20.241699,-1.336792 -36.246704,-18.202332 -36.246704,-38.811462c0,-21.482117 17.38974,-38.896851 38.841064,-38.896851c20.579529,0 37.420898,16.028015 38.755798,36.298767z"/>
     <path fill="#33B5E5" stroke-width="5" id="Combined-Shape" d="m774.958984,516.330017l0,9.041443c2.236694,19.352356 18.657104,34.376099 38.581482,34.376099c21.451355,0 38.841064,-17.414673 38.841064,-38.89679c0,-21.482147 -17.389709,-38.896881 -38.841064,-38.896881c-19.924377,0 -36.344788,15.023773 -38.581482,34.376129z"/>
     <path fill="#33B5E5" stroke-width="5" id="Combined-Shape" d="m543.362305,518.252686l0,5.196106c-1.334839,20.270813 -18.17627,36.298767 -38.755768,36.298767c-21.451324,0 -38.841064,-17.414673 -38.841064,-38.89679c0,-21.482147 17.38974,-38.896881 38.841064,-38.896881c20.579498,0 37.420929,16.028015 38.755768,36.298798z"/>
     <path fill="#CC0000" stroke-width="5" id="Combined-Shape" d="m387.991333,518.252686l0,5.196106c-1.278381,19.412109 -16.777222,34.933228 -36.161438,36.213379l-5.188721,0c-20.241699,-1.336792 -36.246704,-18.202332 -36.246704,-38.811401c0,-21.482147 17.38974,-38.896881 38.841064,-38.896881c20.579529,0 37.420898,16.028015 38.755798,36.298798z"/>
     <path fill="#007E33" stroke-width="5" id="Combined-Shape" d="m774.958984,361.457275l0,9.066833c2.072083,17.979156 16.318115,32.245636 34.271484,34.32074l4.526917,0l4.526917,0c17.953369,-2.075104 32.199402,-16.341583 34.271484,-34.32074l0,-9.066833c-2.24353,-19.466492 -18.758423,-34.580627 -38.798401,-34.580627c-20.039978,0 -36.554871,15.114136 -38.798401,34.580627z"/>
     <path fill="#00C851" stroke-width="5" id="Combined-Shape" d="m504.563904,404.58493c-21.427765,0 -38.798431,-17.395569 -38.798431,-38.854126c0,-21.458557 17.370667,-38.854156 38.798431,-38.854156c21.427795,0 38.798401,17.395599 38.798401,38.854156c0,21.458557 -17.370605,38.854126 -38.798401,38.854126z"/>
     <path fill="#FFBB33" stroke-width="5" id="Combined-Shape" d="m387.991333,363.175415l0,5.196167c-1.278381,19.412048 -16.777222,34.933197 -36.161438,36.213348l-5.188721,0c-20.241699,-1.336792 -36.246704,-18.202332 -36.246704,-38.811432c0,-21.482147 17.38974,-38.896851 38.841064,-38.896851c20.579529,0 37.420898,16.027985 38.755798,36.298767z"/>
     <path fill="#FFBB33" stroke-width="5" id="Combined-Shape" d="m697.700989,363.435303l0,5.196167c-1.278381,19.412048 -16.777222,34.933197 -36.161438,36.213379l-5.188721,0c-20.241699,-1.336823 -36.246704,-18.202362 -36.246704,-38.811462c0,-21.482117 17.389771,-38.896851 38.841064,-38.896851c20.579529,0 37.420898,16.028015 38.755798,36.298767z"/>
     <path fill="#0099CC" stroke-width="5" id="Combined-Shape" d="m852.555786,208.098175l0,5.196152c-1.27832,19.412064 -16.777222,34.933197 -36.161438,36.213364l-5.18866,0c-20.241699,-1.336792 -36.246704,-18.202347 -36.246704,-38.811447c0,-21.482132 17.389709,-38.896835 38.841003,-38.896835c20.57959,0 37.420898,16.027985 38.755798,36.298767z"/>
     <path fill="#FF4444" stroke-width="5" id="Combined-Shape" d="m697.700989,208.098175l0,5.196152c-1.278381,19.412064 -16.777222,34.933197 -36.161438,36.213364l-5.188721,0c-20.241699,-1.336792 -36.246704,-18.202347 -36.246704,-38.811447c0,-21.482132 17.389771,-38.896835 38.841064,-38.896835c20.579529,0 37.420898,16.027985 38.755798,36.298767z"/>
     <path fill="#FF4444" stroke-width="5" id="Combined-Shape" d="m697.700989,518.512573l0,5.196167c-1.278381,19.412048 -16.777222,34.933167 -36.161438,36.213318l-5.188721,0c-20.241699,-1.336792 -36.246704,-18.202332 -36.246704,-38.811401c0,-21.482147 17.389771,-38.896851 38.841064,-38.896851c20.579529,0 37.420898,16.027985 38.755798,36.298767z"/>
     <path fill="#CC0000" stroke-width="5" id="Combined-Shape" d="m349.192871,249.50769c-21.427734,0 -38.798401,-17.395584 -38.798401,-38.854141c0,-21.458557 17.370667,-38.854141 38.798401,-38.854141c21.427795,0 38.798462,17.395584 38.798462,38.854141c0,21.458557 -17.370667,38.854141 -38.798462,38.854141z"/>
     <path fill="#0099CC" stroke-width="5" id="Combined-Shape" d="m504.563904,249.50769c-21.427765,0 -38.798431,-17.395584 -38.798431,-38.854141c0,-21.458557 17.370667,-38.854141 38.798431,-38.854141c21.427795,0 38.798401,17.395584 38.798401,38.854141c0,21.458557 -17.370605,38.854141 -38.798401,38.854141z"/>
     <use x="144" y="-4.00189" xlink:href="#path-1" stroke-width="40" mask="url(#mask-2)" id="Rectangle-4"/>
    </g>
    <text x="0" y="-4.00189" font-weight="normal" font-size="420" font-family="Chalkduster" id="RESTAURANTS-when-the">
     <tspan id="svg_2" fill="#FFFFFF" y="1254.005672" x="1783.5"/>
     <tspan id="svg_3" fill="#FFFFFF" font-family="HiraMaruProN-W4, Hiragino Maru Gothic ProN" y="1785.005672" x="159.36">RESTAURANTS</tspan>
     <tspan id="svg_4" fill="#FFFFFF" font-size="100" y="1785.005672" x="3407.64"/>
     <tspan id="svg_5" fill="#FFFFFF" font-size="200" y="2205.005672" x="1783.5"/>
     <tspan id="svg_6" fill="#FFFFFF" font-size="350" font-family="HiraMaruProN-W4, Hiragino Maru Gothic ProN" y="2205.005672" x="1882.94751"/>
     <tspan id="svg_7" fill="#9B9B9B" font-size="450" font-family="HiraMaruProN-W4, Hiragino Maru Gothic ProN" y="2458.005672" x="218.4">when they are</tspan>
     <tspan id="svg_8" fill="#9B9B9B" font-size="100" y="2908.005672" x="1783.5"/>
     <tspan id="svg_9" fill="#FFFFFF" font-size="450" font-family="HiraMaruProN-W4, Hiragino Maru Gothic ProN" y="2908.005672" x="1833.22376"/>
     <tspan id="svg_10" fill="#417505" font-size="500" font-family="HiraMaruProN-W4, Hiragino Maru Gothic ProN" y="3034.005672" x="201.5">MENTIONED</tspan>
     <tspan id="svg_11" fill="#417505" font-size="50" y="3534.005672" x="1783.5"/>
     <tspan id="svg_12" fill="#FFFFFF" font-size="350" font-family="HiraMaruProN-W4, Hiragino Maru Gothic ProN" y="3534.005672" x="1808.36188"/>
     <tspan id="svg_13" fill="#9B9B9B" font-size="380" font-family="HiraMaruProN-W4, Hiragino Maru Gothic ProN" y="3597.005672" x="209.35">not when they’re</tspan>
     <tspan id="svg_14" fill="#9B9B9B" font-size="100" y="3977.005672" x="1783.5"/>
     <tspan id="svg_15" fill="#9B9B9B" font-size="380" font-family="HiraMaruProN-W4, Hiragino Maru Gothic ProN" y="3977.005672" x="1833.22376"/>
     <tspan id="svg_16" fill="#D0011B" font-size="550" font-family="HiraMaruProN-W4, Hiragino Maru Gothic ProN" y="4103.005672" x="170.075">MARKETED</tspan>
    </text>
   </g>
  </g>

  <metadata id="svg_34">image/svg+xml</metadata>
  <g transform="rotate(175.112, 1761.62, 1117.95)" id="svg_37">
   <g transform="matrix(5.90114, 0, 0, 5.14363, -201.752, -1601.32)" id="svg_36">
    <title stroke-width="0">Layer 1</title>
    <path stroke-width="0" id="svg_33" fill="#7f3f00" d="m50.044552,521.686218c-2.99118,-1.037476 -5.632355,-2.350708 -5.868805,-2.918091c-0.236725,-0.567627 1.068848,-3.507202 2.901367,-6.532471c5.531921,-9.133972 3.840607,-16.605957 -5.042664,-22.278442c-2.652954,-1.694458 -4.823425,-3.954468 -4.823425,-5.022858c0,-1.068634 2.039978,-5.211945 4.533203,-9.207916c7.45401,-11.946167 7.483185,-16.852417 0.223602,-37.424194l-6.079041,-17.227295l0.029999,-17.256226l0.030029,-17.25647l4.583466,-6.514038c2.521057,-3.582764 4.953949,-8.052124 5.406616,-9.932373c0.452667,-1.880005 1.202911,-3.40332 1.667328,-3.38501c0.464691,0.018188 3.820099,1.0271 7.456482,2.242065c3.636322,1.214722 11.085682,2.702148 16.553722,3.305176c8.532387,0.941162 10.876289,0.815063 16.529427,-0.888306c17.070862,-5.143921 19.229919,-5.275879 55.155746,-3.373535c31.837402,1.685913 34.010132,1.675781 45.97876,-0.209839c11.709595,-1.845093 13.14563,-1.861206 21.15741,-0.238281c9.139648,1.85144 67.506409,3.806274 114.382568,3.830566c21.620728,0.011475 22.936951,-0.115967 34.436829,-3.332886c6.576233,-1.8396 16.250427,-3.657959 21.498169,-4.040649c5.247437,-0.382813 12.363159,-1.102173 15.812195,-1.598755c3.449036,-0.496582 11.626526,-0.551636 18.17218,-0.122314c24.843262,1.629517 96.149231,4.062134 118.34964,4.037476c20.434998,-0.022705 24.30127,0.239868 33.059692,2.245361c5.856323,1.341064 17.710876,2.817749 28.953796,3.606812c18.671875,1.310303 19.086914,1.390503 21.65332,4.199341c3.751221,4.106201 3.262451,7.24707 -2.178833,13.968506c-5.741577,7.096069 -6.260376,12.710205 -1.850952,20.03772c2.519897,4.188965 2.989502,7.216553 3.723877,24.066528c0.862793,19.795898 1.280518,22.180908 7.980469,45.553345c4.032471,14.061096 5.102661,27.120239 2.528076,30.804352c-2.050293,2.934723 -9.621216,3.753815 -28.148376,3.044464c-18.144836,-0.69458 -19.93042,-0.390625 -30.403503,5.172607c-7.933899,4.214355 -12.448853,4.701782 -41.92926,4.526123c-18.868744,-0.112183 -31.12735,0.35498 -40.331451,1.536865c-7.272949,0.93396 -22.149292,1.785522 -33.058594,1.892578c-10.909363,0.106812 -26.380859,0.646851 -34.380859,1.200195c-27.598755,1.908691 -47.67395,1.31189 -79.386597,-2.360229c-15.974976,-1.849731 -38.26886,-4.42981 -49.54187,-5.733154c-25.678711,-2.969116 -53.693237,-4.054077 -68.572327,-2.65564c-40.895935,3.84375 -45.097168,4.023193 -71.214233,3.039185c-14.392029,-0.54248 -28.547531,-0.617554 -31.456589,-0.167114c-11.854492,1.834473 -31.34375,3.174194 -46.73304,3.212402c-13.350964,0.033081 -17.308117,-0.30249 -21.757549,-1.845947l0,0.000366l0,0z"/>
    <path id="svg_32" opacity="0.8" fill="#000000" stroke-width="0" d="m90.451706,391.356934c8.204285,0.011963 16.408508,0.012451 24.613098,0.013062c7.465088,-0.031372 14.929077,0.163574 22.379074,-0.296753c4.585999,-0.21167 9.134033,-0.568726 13.672058,-1.153809c0.585938,-0.064941 1.177979,-0.101563 1.758972,-0.194702c2.450989,-0.392334 4.771973,-1.003296 7.264954,-1.284058c3.753052,-0.422485 5.583008,-0.453491 9.550049,-0.666992c16.115967,-0.564209 32.251953,-0.562378 48.378967,-0.611694c11.028992,-0.022705 22.058044,-0.028809 33.088013,-0.02356c6.16803,0.005859 12.335999,0.009766 18.505005,0.012329c1.263977,0.000244 2.528992,0.000244 3.794006,0.000244c3.625977,0.000244 7.251953,0.000244 10.877991,-0.001099c3.586975,-0.001099 4.041016,0.000366 2.158997,-0.002441c6.702026,-0.003174 13.404053,0.004395 20.10498,0.008179c12.570068,0.005981 25.139038,0.00769 37.709045,0.002441c8.054993,-0.001099 16.108948,-0.01001 24.164001,-0.012207c5.281982,0.000732 10.562988,0 15.844971,0.003784c8.703979,0.004883 17.409058,0.006714 26.114014,0.007813c10.174011,-0.000732 20.348022,-0.001099 30.521973,-0.004028c7.572998,-0.001343 15.147034,-0.003052 22.721069,-0.003052c7.681946,-0.001221 15.36499,-0.002197 23.046997,0.000366c8.805969,0.002197 17.611938,0.003296 26.41806,0.003784c5.454895,0.000732 10.509949,-0.005981 15.938965,-0.009277c3.497009,-0.003052 6.993042,-0.000977 10.490051,-0.000244c4.394958,0.002197 8.789978,0.001099 13.184998,-0.000244c2.980957,-0.000854 5.960999,-0.002197 8.941956,-0.001465c2.842041,0.000366 5.682007,0 8.524048,-0.000244c-2.741028,1.305908 2.041992,-0.360962 1.681946,-0.003296c-0.949951,0.940308 -2.418945,0.485474 -3.712952,0.483032c-4.860046,-0.009033 -7.255005,-0.009888 -12.402039,-0.015015c-18.987976,-0.013916 -37.976013,-0.012573 -56.965057,-0.003296c-10.722046,0.007935 -21.444031,0.013672 -32.166016,0.012329c-13.139038,-0.821533 -26.290039,-1.389648 -39.458008,-1.738892c-11.531006,-0.275146 -23.067017,-0.349854 -34.60199,-0.377319c-9.132019,-0.010132 -18.265015,-0.002197 -27.397034,-0.002441c-17.125977,-0.000366 -34.250977,-0.004883 -51.375977,-0.006592c-18.778992,0.001343 -37.557007,0.002197 -56.335999,0.009888c-10.854004,0.005615 -21.708984,0.009521 -32.562988,0.006592c-12.586975,-0.002319 -25.174011,-0.004761 -37.760986,-0.005493c-9.433044,0.001099 -18.866028,0.006226 -28.299011,0.01001c-8.478027,0.001343 -16.958008,-0.002197 -25.437012,-0.001831c-7.564987,0.491699 -15.178879,0.960693 -22.678452,1.957275c-6.100098,0.788452 -12.034546,2.227783 -17.827148,3.983643c-3.28009,1.086914 -6.135284,2.724487 -8.631287,4.785889c-0.283905,0.292969 -0.81189,0.504028 -0.851288,0.879028c-0.074493,0.710938 2.352386,1.010986 3.816895,1.172974c2.166412,0.240967 4.347015,0.396973 6.528717,0.506958c8.440063,0.427002 18.424683,0.519043 26.700562,0.667969c39.628036,0.440063 79.260971,0.423096 118.892014,0.411011c16.755005,-0.011963 33.51001,-0.04895 50.263977,-0.067017c11.468994,-0.16394 22.869995,0.982056 34.305054,1.526001c10.444946,0.446045 20.906006,0.52002 31.362976,0.568115c11.681946,0.030884 23.363953,0.021973 35.045959,0.020996c14.571045,-0.003052 29.142029,-0.009033 43.712036,-0.013062c14.093994,-0.000977 28.187988,0 42.281006,-0.000977c8.424988,-0.003052 16.848999,-0.009033 25.273987,-0.010986c8.453064,0.001953 16.904999,0.005981 25.358063,0.005981c6.857056,-0.003052 13.713013,-0.004028 20.570007,-0.003052c4.138,-0.147949 8.308044,0.186035 12.445007,-0.001953c0.653015,-0.029053 2.457031,-0.324951 1.851013,-0.530029c-0.580994,-0.197998 -1.234009,-0.197998 -1.851013,-0.296997c-1.380981,-0.156982 -2.758972,-0.354004 -4.145996,-0.471924c-8.919006,-0.754028 -17.947998,-0.848999 -26.900024,-0.994019c-11.78894,-0.19104 -21.325958,-0.227051 -33.251068,-0.310059c-35.580994,-0.167969 -71.161987,-0.176025 -106.744019,-0.143921c-14.335938,0.263916 -28.719971,-0.499023 -43.016968,0.584961c-17.690002,1.63501 -35.342041,3.527954 -53.06604,4.901001c-17.152954,1.238037 -34.365997,1.668945 -51.574951,1.89502c-13.612,0.126953 -27.226013,0.083984 -40.838989,0.065918c-9.859009,0.150024 -19.734009,-0.231934 -29.592041,-0.021973c-3.536011,0.075073 -7.05896,0.409058 -10.589966,0.588989c-10.89502,0.671021 -21.592041,2.609009 -32.418015,3.755981c-6.565979,0.718018 -13.114807,1.534058 -19.677612,2.26709c-1.035889,0.161987 -2.898682,0.411987 -3.983948,0.711914c-0.045349,0.013062 0.057068,0.079102 0.104858,0.082031c0.732239,0.041016 1.467712,0.025024 2.201111,0.047974c10.17218,0.320068 -0.186523,0.096069 13.828613,0.325073c39.679977,0.312012 79.362961,0.265015 119.044968,0.27002c35.917969,-0.002075 71.835999,-0.022095 107.754028,-0.046021c21.047974,-0.015991 42.094971,-0.015015 63.142944,-0.01709c19.155029,-0.000977 38.310059,-0.001953 57.463989,-0.005981c14.105042,0.054077 28.21106,-0.137939 42.31311,0.125c11.028961,0.640991 22.008026,1.742065 33.022003,2.533081c4.274048,0.532959 8.52002,1.11792 12.833008,1.370972c3.600037,-0.140015 6.996033,0.708008 10.471985,1.320923c0.65802,0.134033 11.226013,0.822021 4.679016,1.32605c-1.648987,0.126953 -3.313965,0.031982 -4.971008,0.047974c-33.939941,0.046997 -67.879059,0.008057 -101.819061,0.004028c-27.964966,0.140015 -55.947998,-0.410034 -83.895996,0.630005c-13.132019,0.400024 -26.144043,1.917969 -39.215027,2.932007c-21.816956,1.385986 -43.686951,1.996948 -65.557007,2.416992c-18.888977,0.313965 -37.782959,0.375 -56.675964,0.394043c-14.98999,0.422974 -29.919006,1.713013 -44.888,2.473022c-11.656006,0.244995 -23.267029,0.914917 -34.892029,1.625c-9.522995,0.644897 -19.08989,0.571899 -28.621567,1.052002c-3.675598,0.185913 -11.964294,0.829956 -15.624878,1.10498c-6.967529,0.533936 -13.950836,0.88501 -20.907936,1.513916c-1.934601,0.175049 -5.717583,0.24707 -7.691795,1.06604c0.486816,-0.057007 0.968689,-0.166992 1.460114,-0.171021c2.728874,-0.018921 5.45327,0.200073 8.181877,0.23999c7.405708,0.111084 14.813515,0.109985 22.220009,0.130981c21.953796,0.028076 43.908188,0.018066 65.862228,0.016113c26.175964,-0.005005 52.351929,-0.008057 78.527954,-0.014038c22.442993,-0.31897 44.864014,0.465942 67.27301,1.396973c3.914001,0.14502 7.833008,0.227051 11.743958,0.43396c14.842041,0.786011 29.665039,2.034058 44.481079,3.088013c17.721924,1.260986 15.652954,1.085083 33.409973,2.128052c24.622009,1.340942 49.28595,2.031006 73.955017,2.364014c11.132935,0.12793 22.265991,0.098022 33.400024,0.085938c14.53598,-0.094971 29.06601,0.368042 43.593048,0.731079c0.877991,0.031006 1.820007,-0.186035 2.633972,0.091919c0.317017,0.108032 -0.467957,0.502075 -0.80896,0.531982c-1.910034,0.168091 -3.840027,0.041016 -5.76001,0.046997c-4.166016,0.013062 -8.332031,0.011108 -12.497986,0.011108c-33.852081,0 -13.002075,-0.144043 -54.222076,0.467896c-13.37207,0.225098 -26.74707,0.380005 -40.117065,0.675049c-22.506958,0.496948 -67.573975,1.875977 -90.006958,2.522949c-38.947021,1.124023 -77.89502,2.162109 -116.850037,3.089111c-34.483948,0.790894 -68.971985,1.518921 -103.468979,1.735962c-14.32959,0.062012 -28.659912,0.046997 -42.990173,0.027954c-1.906525,-0.001953 -3.812714,-0.005981 -5.719208,-0.009033c-0.540009,-0.000977 -1.080109,-0.000977 -1.620117,-0.000977c-0.173401,-0.000977 -0.578278,0.135986 -0.520081,-0.000977c0.383301,-0.901001 2.799591,-0.486938 3.069,-0.486938c17.520508,0.194946 35.01947,-0.070068 52.524582,-0.684082c28.857971,-1.390015 57.628967,-3.896973 86.322998,-6.781982c25.091003,-2.75 50.218018,-5.26001 75.419983,-7.17395c23.848022,-1.677002 47.789001,-1.947998 71.706055,-2.147095c21.82196,-0.125 43.644958,-0.093994 65.466919,-0.078003c15.644043,0.012085 31.288025,0.019043 46.93103,0.021118c10.14801,0.088989 20.302002,-0.177002 30.445068,0.125c12.272003,0.431885 24.486053,1.50293 36.751007,2.092896c14.184021,0.580078 28.386047,0.7771 42.585999,0.915039c0.481018,0.005981 1.16803,-0.312988 1.442017,0.018066c0.223022,0.268921 -0.627991,0.450928 -1.018982,0.49292c-1.166016,0.125 -2.353027,-0.001953 -3.530029,-0.00293c-8.157959,-0.006104 -16.315979,-0.015015 -24.472961,-0.023071c-18.424988,-0.078979 -36.844055,-0.051025 -55.264069,0.281006c-24.067078,0.686035 -47.700012,4.695068 -71.335999,8.216064c-32.284058,5.283936 -65.041016,7.69397 -97.837036,9.255005c-23.700012,0.991943 -47.429993,1.221924 -71.155029,1.284912c-17.739014,0.010986 -35.47699,-0.042969 -53.215942,-0.064941c-14.785034,-0.018066 -29.570068,-0.018066 -44.355042,-0.01001c-2.555969,0.260986 -5.156982,-0.21106 -7.716003,0.005005c-0.223022,0.017944 0.822998,0.177979 0.609985,0.238037c-0.846985,0.23999 -1.768982,0.221924 -2.651978,0.340942c-2.494995,0.33606 -2.656006,0.379028 -5.209961,0.790039c-6.434021,1.008911 -12.938049,1.626953 -19.417053,2.38501c-5.057968,0.635986 -10.022995,1.615967 -15.079086,2.267944c-9.291687,0.888062 -18.587158,1.85498 -27.796997,3.225952c-0.529358,0.133057 -1.073669,0.229004 -1.587769,0.398071c-0.137909,0.046021 0.295898,-0.026001 0.443909,-0.02002c0.790894,0.029053 1.579651,0.093018 2.370605,0.125977c5.331787,0.221069 10.66687,0.250977 16.003845,0.300049c15.233521,0.077026 30.466476,0.054932 45.699509,0.053955c28.879028,0.137085 57.744995,-0.009033 86.61499,-0.589966c33.906006,-0.763062 67.821045,-1.143066 101.737,-1.381958c20.695007,-0.134033 41.390015,-0.169067 62.085999,-0.175049c21.212036,0.005005 42.425049,0.016968 63.637024,0.024048c21.858948,0.003906 43.718048,0.001953 65.57608,-0.005005c10.838989,-0.005005 21.677002,-0.010986 32.513977,-0.019043c2.716003,-0.004028 5.436035,-0.001953 8.152039,-0.005005c0.455994,-0.000977 0.989014,-0.208984 1.373962,-0.004028c0.210022,0.112061 -0.218994,0.453003 -0.461975,0.488037c-0.953003,0.135986 -1.932983,-0.005005 -2.896973,-0.008057c-31.387024,0.26709 -62.776031,0.534058 -94.164154,0.690063c-37.972961,0.162964 -75.94696,0.259033 -113.920959,0.330933c-14.873962,0.031006 -29.747986,0.033081 -44.621033,0.024048c-12.10199,0.177979 -24.222961,-0.270996 -36.322998,-0.015991c-5.786987,0.121948 -11.554993,0.595947 -17.33197,0.891968c-17.921021,1.083984 -35.867981,1.74707 -53.830017,2.06604c-17.942017,0.234985 -35.886963,0.223999 -53.830994,0.22998c-17.862,-0.090942 -35.713974,-0.121948 -53.553268,0.702026c-13.824402,1.030029 -27.67691,1.85498 -41.485714,3.030029c-0.498993,0.063965 -0.992706,0.198975 -1.497803,0.191895c-0.106201,-0.000977 0.090912,-0.196899 0.196106,-0.209961c0.601196,-0.072021 1.214111,-0.032959 1.82159,-0.031982c3.930603,0.013062 7.8619,0.07605 11.793114,0.087036c16.405373,0.013916 32.810707,0.005981 49.215981,0.005981c25.168015,0 50.335983,-0.000977 75.504013,-0.008057c22.380981,-0.005005 44.760986,-0.005981 67.141968,-0.00293c22.994019,0.00293 45.987,0.004028 68.980042,0.000977c19.729004,-0.004028 39.455933,-0.005981 59.184937,-0.006958c17.946045,0.00293 35.892029,0.003906 53.83905,-0.002075c11.707947,-0.00293 23.415955,-0.012939 35.123962,-0.012939c13.633057,0.001953 27.266083,0.006958 40.900116,0.008911c14.447998,0.003052 28.895996,0.002075 43.345032,-0.005981c4.86499,-0.008911 9.72998,0 14.597961,-0.01001c0.445007,-0.000977 -1.78302,-0.000977 -1.338013,-0.001953c0.699036,-0.001953 1.39801,0 2.097046,0c3.013977,0.019043 6.039001,-0.073975 9.050964,0.136963c0.01001,0.000977 2.315002,0.254028 1.377991,1.112061c-0.531982,0.490967 -1.372986,0.666992 -2.057983,1c-1.771973,0.363037 -3.516968,0.828979 -5.315979,1.088989c-7.161011,1.033936 -17.838989,1.713989 -24.539001,2.250977c-6.606018,0.529053 -13.210022,1.058014 -19.812988,1.600983c-29.972046,2.465118 -18.485046,1.460114 -49.055145,4.469147c-35.605957,3.60498 -71.28894,6.677917 -107.042969,9.051941c-11.700989,0.918945 -23.447021,0.927979 -35.186035,0.924927c-17.041992,-0.026001 -34.083984,-0.064941 -51.125977,-0.083984c-12.093018,-0.009033 -24.184998,-0.013062 -36.276978,-0.02002c-18.640015,-0.011963 -37.280029,-0.011963 -55.921021,-0.010986c-19.278015,0.004028 -38.557007,0.004028 -57.834961,0.003052c-17.406006,-0.001099 -34.811203,0.001953 -52.216537,0.011963c-7.279785,0.005981 -14.55957,0.01001 -21.839394,0.010986c-0.278778,0 -3.87088,0.000977 -4.426788,0.003052c-0.075012,0.000977 -0.297516,0.021973 -0.224915,0.005981c3.834015,-0.838013 2.312408,-0.484009 7.810005,-0.474976c2.831512,0.003906 5.66272,0.006958 8.494202,0.009888c30.113281,0.028076 60.226425,0.0271 90.340378,0.024048c26.031006,-0.059937 52.058044,0.480957 78.087036,0.755005c16.519958,0.286011 33.049011,0.045044 49.570007,0.254028c10.271973,0.130005 13.637939,0.340942 23.859985,0.762939c22.141968,0.890015 44.174988,3.013062 66.167969,5.254028c20.622009,2.097076 41.383057,2.842072 62.13501,3.291046c11.754028,0.20105 23.512024,0.259033 35.269043,0.225952c11.464966,-0.016968 22.929047,-0.026978 34.394012,-0.034912c7.940063,-0.004028 15.880066,-0.010986 23.820068,-0.01709c2.588989,-0.049927 5.186951,0.127075 7.772949,-0.000977c0.354004,-0.017944 -1.373962,-0.134033 -1.034973,-0.233032c0.947021,-0.279907 1.98999,-0.237915 2.987,-0.342896c3.674011,-0.391113 3.815979,-0.374023 7.646973,-0.673096c9.217041,-0.531006 18.453003,-0.593994 27.657043,-1.291046c0.261963,-0.053955 1.047974,-0.201904 0.782959,-0.162964c-0.550964,0.081055 -1.082947,0.273071 -1.642944,0.290039c-1.584045,0.046021 -3.167053,-0.081055 -4.751038,-0.104004c-2.669983,-0.039063 -5.343018,-0.062012 -8.015991,-0.082031c-8.387024,-0.062012 -16.244019,-0.073975 -24.669983,-0.098022c-31.257019,-0.059937 -62.514069,-0.045898 -93.771149,-0.034912c-22.902954,0.01001 -45.805969,0.018921 -68.708984,0.022949c-18.877991,0.000977 -37.755981,0.003052 -56.633972,0.005005c-14.695984,0.004028 -29.392029,0.009033 -44.088989,0.01001c-14.674011,-0.003052 -29.348999,-0.006958 -44.023987,-0.006958c-12.458008,-0.001099 -24.916016,0.003906 -37.375,0.008911c-9.169006,0.004028 -18.33905,0.005005 -27.509033,0.002075c-13.627014,-0.005981 -27.254028,-0.00708 -40.880981,-0.005005c-10.791016,0.001953 -21.580978,0.00293 -32.371811,0.005981c-6.612793,-0.045044 -13.220215,0.703033 -19.800964,1.350006c-10.550323,0.917969 -21.01902,2.388062 -31.518032,3.638062c7.826405,-1.252075 -5.417564,0.584991 -4.048088,0.726959c0.657501,0.06897 1.31411,-0.171997 1.976707,-0.174927c1.801392,-0.006104 3.600281,0.11792 5.401394,0.149902c7.025078,0.12207 15.547089,0.140991 22.39798,0.178101c40.161804,0.115967 80.324814,0.079956 120.486801,0.063965c35.727966,-0.015015 71.455017,-0.029053 107.183044,-0.031006c32.847961,-0.000977 65.694946,-0.004028 98.541992,-0.01001c22.833984,-0.006958 45.667969,-0.011963 68.500977,-0.015015c18.258972,-0.000977 36.516998,-0.003052 54.775055,-0.005981c10.822021,-0.000977 21.642029,-0.008057 32.465027,-0.014038c4.71698,-0.00293 9.437988,-0.006958 14.156006,-0.009033c-0.634033,-0.363892 2.046997,0.168091 1.883972,-0.350952c-0.06897,-0.21402 -0.510986,-0.124023 -0.769958,-0.16507c-1.041016,-0.162964 -2.080994,-0.340942 -3.13501,-0.445923c-5.152039,-0.514038 -9.158997,-0.60498 -14.489014,-0.847046c-26.202026,-0.802979 -52.429993,-0.824951 -78.648102,-0.896973c-22.47998,-0.041016 -44.960022,-0.022949 -67.440002,-0.02002c-26.60498,0 -53.210999,0.005005 -79.817017,0.009033c-22.862976,-0.305054 -45.701965,-1.255981 -68.560974,-1.716064c-21.549011,-0.35791 -43.102966,-0.369995 -64.654968,-0.393921c-19.061035,-0.015015 -38.122009,0.000977 -57.183044,0.015015c-12.190979,0.153931 -24.380966,-0.147095 -36.488449,-1.366119c-5.308899,-0.536987 -10.597107,-1.213013 -15.797302,-2.266968c-3.36792,-0.682007 -2.294739,-0.20105 -4.164307,-1.311035c0.510498,-0.266968 0.942078,-0.698975 1.531921,-0.800903c2.420288,-0.420044 12.968689,-0.603027 13.968994,-0.623047c4.04126,-0.078003 8.083557,-0.123047 12.12616,-0.161011c10.68602,-0.100952 22.197006,-0.124023 32.848984,-0.160034c38.136047,-0.079956 76.272034,-0.05896 114.40802,-0.050903c34.448975,0.010986 68.898987,0.012939 103.348999,0.010986c27.723999,-0.002075 55.447998,-0.005005 83.171997,-0.010986c21.429993,-0.003052 42.860962,-0.005005 64.291046,-0.004028c20.631042,-0.082031 41.267029,0.164917 61.897034,-0.130981c1.559021,-0.036011 12.062012,-0.265991 14.109009,-0.357056c1.338013,-0.059937 2.676025,-0.136963 4.002991,-0.283936c0.374023,-0.042114 1.455017,-0.232056 1.083984,-0.279053c-0.731995,-0.091064 -1.471985,0.14502 -2.208984,0.137939c-2.239014,-0.022949 -4.47699,-0.152954 -6.713013,-0.229004c-35.388977,-0.578979 -70.790039,-0.533936 -106.185089,-0.569946c-25.153992,-0.020996 -50.30896,0.008057 -75.463013,0.021973c-23.250977,0.005005 -46.500977,-0.006958 -69.751953,-0.008911c-25.844971,0.362915 -51.649048,-0.955078 -77.439026,-2.151001c-10.929993,-0.601074 -21.875977,-0.875 -32.826965,-0.964111c-21.304016,0.137085 -42.578003,-0.164856 -63.859985,-0.964905c-23.177002,-0.928955 -46.393051,-1.547974 -69.498703,-3.393921c-1.341431,-1.808105 -6.421692,0.366943 -8.245026,-1.415039c-1.077301,-1.054077 2.482635,-1.906006 5.691132,-2.390991c7.554199,-1.143066 16.602356,-1.409058 24.020874,-1.828003c49.766708,-1.738068 99.596664,-1.766998 149.399704,-1.963043c34.250977,-0.113068 68.502014,-0.121002 102.752991,-0.113068c21.21698,0.338043 42.406006,-0.63501 63.603027,-1.240967c18.148926,-0.384033 36.184937,-2.094971 54.132935,-4.269043c14.097046,-1.786987 28.27713,-2.86499 42.508148,-3.50293c8.587952,-0.328979 17.182983,-0.468018 25.779968,-0.504028c0.744995,-0.077026 1.492981,-0.139038 2.239014,-0.233032c2.312012,-0.291992 4.708984,-0.590942 6.997009,-0.997925c0.198975,-0.036011 0.758972,-0.210083 0.553955,-0.21106c-0.70697,-0.004028 -1.405945,0.13501 -2.109985,0.203003c-39.339966,-0.602051 -78.69809,-0.442017 -118.044037,-0.468018c-47.935059,-0.018921 -95.870056,0.012085 -143.805054,0.059082c-19.095947,0.028931 -38.190979,0.029907 -57.286011,0.026978c-18.862976,-0.197021 -37.76001,0.356934 -56.615967,-0.30603c-3.403015,-0.119995 -6.796997,-0.374023 -10.196045,-0.560059c-15.054932,-0.755005 -29.941956,-2.562988 -44.814941,-4.557007c-7.356003,-1.042969 -14.805893,-1.665894 -22.144089,-2.787964c-0.582642,0.867065 -2.03894,-0.690918 -1.573425,-1.112915c1.041626,-0.945068 4.526917,-1.226074 5.31189,-1.350098c8.272583,-1.307983 6.294617,-0.954956 16.123596,-2c25.616989,-1.921997 51.353989,-2.401001 77.017014,-3.765991c1.430969,-0.075928 54.197998,-3.327026 54.848022,-3.366943c48.300964,-3.030029 96.557983,-6.525024 144.833984,-9.820068c28.565979,-1.971924 57.156982,-3.590942 85.770996,-4.984009c17.91507,-0.91394 35.679047,-3.000977 53.473053,-4.86499c13.546021,-1.203003 26.889038,-3.534912 40.390015,-5.005005c4.31604,-0.447998 8.648987,-0.73999 12.984009,-1.007935c0.77301,-0.047974 1.546082,-0.087036 2.318054,-0.143066c0.264893,-0.018921 0.989014,-0.235962 0.794922,-0.079956c-0.313965,0.254028 -0.807983,0.277954 -1.211914,0.416992c-11.896057,-0.064941 -23.791077,-0.030029 -35.690063,-0.025024c-22.015015,0.046997 -44.032043,-0.098022 -66.046112,0.134033c-16.901001,0.595947 -33.796997,1.739014 -50.51001,3.978027c-7.295959,0.976929 -17.570923,2.699951 -24.848999,3.884033c-3.882935,0.601929 -7.771973,1.17688 -11.647949,1.805908c-9.263062,1.502075 -12.274048,2.180054 -21.447998,3.551025c-9.538025,1.426025 -19.096008,2.407959 -28.726013,3.255981c-14.21698,1.103027 -28.5,1.312988 -42.768982,1.405029c-1.518066,0.003052 -3.036987,0.009033 -4.555054,0.01001c-4.656982,0.001953 -9.563965,-0.239014 -14.242981,-0.026978c-0.346008,0.015991 0.851013,-0.139038 1.031006,0.109009c0.149963,0.204956 -0.565002,0.095947 -0.846985,0.143921c0.608032,-0.088989 1.208008,-0.255981 1.824951,-0.265991c1.628052,-0.028931 3.255005,0.11499 4.883057,0.150024c2.700989,0.05896 5.401978,0.099976 8.104004,0.133057c10.11499,0.123901 16.578003,0.066895 27.085938,0.444946c6.403076,0.230957 12.796997,0.610962 19.196045,0.916992c41.229004,2.367065 82.518982,3.767944 123.827026,4.671997c22.531067,0.469971 45.068085,0.592041 67.604034,0.614014c12.074036,-0.000977 24.150024,-0.021973 36.223022,-0.045044c3.393982,0.348999 7.522034,-0.661011 10.823059,0.274048c0.389893,0.110962 -0.377075,0.68103 -0.754028,0.817017c-0.983032,0.355957 -2.075012,0.458984 -3.137024,0.588013c-1.900024,0.23291 -3.819031,0.331909 -5.731018,0.497925c-24.833984,2.139038 -49.825989,2.125 -74.750061,2.768066c-6.60495,0.169922 -13.204987,0.432983 -19.808014,0.648926c-27.765015,1.423096 -55.627991,1.588013 -83.355957,3.479004c-17.123047,1.666992 -34.325073,2.324097 -51.546021,2.669067c-21.519043,0.301025 -43.041992,0.296997 -64.562988,0.307007c-17.787048,0.00293 -35.574036,-0.008057 -53.361023,-0.018066c-20.063049,-0.011963 -40.126038,-0.012939 -60.189026,-0.010986c-10.963013,-0.001953 -21.926025,0.019043 -32.888977,0.020996c-0.940979,-0.051025 -9.830994,0.370972 -10.367004,-0.66394c-0.333984,-0.647095 1.653992,-0.272095 2.487,-0.383057c1.32196,-0.176025 2.649963,-0.319946 3.973999,-0.479004c19.544983,-1.772949 39.034973,-3.908936 58.559021,-5.833008c5.617981,-0.468994 11.238953,-0.907959 16.852966,-1.408936c27.286011,-2.437012 12.676025,-1.427979 41.978027,-3.677979c24.926941,-1.914063 49.901978,-3.263062 74.86499,-4.798096c41.768005,-2.329956 83.445984,-5.508911 125.10199,-8.937012c13.485962,-1.319946 27.132996,-1.86499 40.513031,-3.872925c5.580048,-0.916992 10.891052,-2.560059 16.502991,-3.377075c1.359009,0.657104 2.733093,-0.690918 4.083069,-0.475952c0.263,0.041992 -0.450989,0.286011 -0.718018,0.302002c-1.088074,0.067017 -2.180054,-0.046021 -3.270081,-0.05896c-5.776917,-0.067017 -10.296936,-0.067017 -16.259918,-0.088013c-42.569092,-0.067017 -85.136108,-0.059082 -127.705078,-0.051025c-34.328003,0.008057 -68.656006,0.036987 -102.984009,0.06897c-15.532013,0.117065 -31.047974,0.05603 -46.562988,-0.600952c-18.999023,-0.448975 -37.914001,-2.009033 -56.757996,-4.015991c-8.03302,-0.874023 -15.914978,-2.513062 -23.934021,-3.446045c-9.104004,-0.426025 -18.229965,-0.640991 -27.345932,-0.872925c-14.714966,-0.799072 -29.426941,-1.62207 -44.155037,-2.235107c-1.123108,-1.040894 -4.296692,0.528076 -5.731201,-0.541992c-0.238892,-0.177979 0.095581,-0.621948 0.385803,-0.734985c0.859985,-0.334961 1.841492,-0.401978 2.783203,-0.499023c2.403076,-0.246948 12.288887,-0.670898 13.611885,-0.734009c34.518311,-1.160889 69.077316,-1.191895 103.618271,-1.338989c39.584045,-0.36499 79.184021,0.337036 118.758057,-0.519897c27.116943,-0.924072 54.227966,-1.895996 81.359985,-2.436035c19.518982,-0.341064 39.042969,-0.36499 58.564941,-0.38208c19.262085,-0.004883 38.523071,0.009033 57.785095,0.01001c10.509003,0 21.018036,-0.005981 31.527069,-0.008911c7.303955,-0.001099 14.607971,0.003906 21.91095,0.005005c1.723022,0 8.007996,0 9.815002,-0.001099c1.04303,-0.000977 2.085999,-0.001953 3.129028,-0.005981c0.291992,-0.000977 1.132996,-0.124023 0.875977,-0.006958c-1.836975,0.832031 -4.393005,0.479004 -6.235962,0.475952c-17.572998,-0.021973 -35.14502,-0.018921 -52.718018,-0.022949c-27.154083,-0.000977 -54.308136,-0.01001 -81.462067,-0.02002c-38.749023,-0.012939 -77.498047,-0.014038 -116.24707,-0.005981c-26.664917,0.005005 -53.330933,0.021973 -79.996948,0.031982c-19.250977,0.005005 -38.502014,-0.001953 -57.753052,-0.005981c-19.521973,-0.005005 -39.043945,0.005005 -58.56694,0.006958c-13.617493,-0.051025 -27.237122,0.134033 -40.852295,-0.114014c1.434998,-1.674927 -3.381897,0.590088 -3.416901,-0.368896c-0.029205,-0.804077 2.375275,-1.168091 3.690399,-1.421021c3.531799,-0.680054 9.342773,-1.536011 12.606506,-2.041016c32.07428,-3.85498 64.546249,-4.448975 96.88829,-5.212036c32.708984,-0.403931 65.396973,-1.473999 98.097961,-2.182007c22.338989,-0.328003 44.674011,-0.509033 66.95105,-2.027954c20.256958,-1.205078 40.263977,-4.197998 60.369995,-6.46106c19.903931,-2.44043 39.869995,-4.487061 59.786987,-6.841309c8.426025,-0.872559 16.725952,-1.772461 25.060974,-3.105591c5.467041,-0.733887 10.942108,-1.429321 16.463043,-1.813721c3.05304,-0.187988 6.112976,-0.263428 9.171021,-0.36792c0.481079,-0.016479 0.988037,-0.187622 1.44104,-0.054688c0.169983,0.049683 -0.028992,0.389526 -0.205994,0.416626c-0.836975,0.128784 -1.703003,0.004883 -2.554016,0.007324c-21.258087,-0.057007 -42.515106,-0.047485 -63.773041,-0.049927c-33.927002,-0.005737 -67.854004,-0.000732 -101.782043,0.010132c-20.187988,0.008179 -40.376038,0.023682 -60.564026,0.030273c-15.070984,0.000366 -30.141968,-0.005493 -45.211975,-0.007813c-16.623962,0.020386 -33.244019,0.32312 -49.804993,-1.03833c-13.27301,-1.466675 -26.60199,-2.366577 -39.974976,-2.833984c-10.93103,-0.318604 -21.871033,-0.347534 -32.808029,-0.355713c-7.243958,0.010132 -14.487183,0.018311 -21.730896,0.020996c-10.780212,0.003784 -21.560394,0.001099 -32.340881,0.004883c-2.320412,-0.574463 -4.787117,0.34082 -7.13102,0.009033c-0.286713,-0.040649 -0.951508,-0.450684 -0.662109,-0.475098c2.055603,-0.172485 4.131927,0.007935 6.197906,0.010986c7.390907,0.010132 13.479012,0.013428 20.984627,0.019043c34.448364,0.019897 68.897385,0.023193 103.346359,0.026245c36.616028,0.002197 73.231995,-0.005737 109.848022,-0.012573c26.156982,-0.004395 52.312988,-0.00769 78.469971,-0.016968c15.470032,-0.005981 30.94104,-0.012451 46.411011,-0.015259c12.036011,-0.000244 24.072021,0.001099 36.108032,0.002197c13.63501,0.002197 27.27002,0.001343 40.904083,-0.004272c10.342896,-0.005249 20.684998,-0.005249 31.028015,-0.00415c8.201965,0.000854 16.402954,-0.002197 24.60498,-0.003296c4.47998,-0.059448 8.966003,0.068237 13.445984,-0.005493c0.627991,-0.010254 -1.257996,-0.000244 -1.885986,-0.000854c2.812012,-0.000244 5.625977,0 8.438965,-0.000244c0,0 3.650024,0.483276 3.650024,0.483276l0,0c-2.815002,-0.000244 -5.630005,0 -8.445007,-0.000244c-6.252014,-0.001099 -12.500977,-0.005249 -18.752991,-0.006592c-8.184021,-0.001099 -16.367981,-0.00415 -24.552979,-0.003296c-8.031006,0.001099 -16.062073,0.000244 -24.093018,-0.003784c-13.657135,-0.005981 -27.314117,-0.006836 -40.9711,-0.004395c-14.294983,0.001953 -28.589966,0.002441 -42.88501,0.002197c-15.393982,-0.00293 -30.786987,-0.009521 -46.179993,-0.015259c-26.07196,-0.009277 -52.143005,-0.012573 -78.215027,-0.016846c-34.732971,-0.006714 -69.46698,-0.016113 -104.199951,-0.012939c-34.317017,0.00293 -68.632996,0.006592 -102.949203,0.026489c-7.360596,0.005737 -13.437683,0.009033 -20.692383,0.019409c-5.026924,0.00708 -7.483009,0.165527 -12.547821,-0.464111c-2.394287,-0.297607 12.771912,0.511597 7.261803,0.008423c10.769814,0.00293 21.539925,-0.000854 32.3097,-0.009033c9.575195,-0.010132 19.150879,-0.025391 28.725876,-0.02124c10.903992,0.015991 21.811035,0.054321 32.710022,0.380493c13.356995,0.477539 26.667969,1.394653 39.927002,2.856201c16.537964,1.333618 33.132996,1.044434 49.730927,1.019897c15.110077,-0.002197 30.220062,-0.008423 45.330109,-0.007935c18.07196,0.018921 36.143921,0.016968 54.216919,0.029297c33.944031,0.009277 67.888062,0.01123 101.832031,-0.003662c23.424011,-0.009277 46.847076,-0.032104 70.271088,-0.040039c0.896973,0.013916 1.81604,-0.119873 2.692993,0.041992c0.192017,0.035522 0.307007,0.410889 0.129028,0.47937c-0.454041,0.174805 -1,0.033325 -1.499023,0.048706c-3.067993,0.093262 -6.137024,0.169067 -9.200012,0.350464c-5.514954,0.372192 -10.978973,1.072998 -16.444061,1.783447c-3.220032,0.508667 -6.434021,1.129761 -9.684021,1.490967c-5.197998,0.577637 -10.452026,0.836548 -15.624023,1.599854c-19.982971,2.317993 -40.008972,4.363403 -59.969971,6.820557c-20.083008,2.262817 -40.062012,5.28186 -60.296021,6.484863c-22.354004,1.528931 -44.765991,1.703003 -67.18396,2.012939c-32.79007,0.689087 -65.567017,1.753052 -98.366028,2.146973c-32.138,0.751099 -64.409958,1.347046 -96.272446,5.24707c-4.1073,0.651001 -8.271729,1.269043 -12.354431,2.046021c-0.887299,0.168945 -1.750092,0.424927 -2.642303,0.574951c-0.312592,0.052979 -0.884003,-0.22998 -0.955597,0.030029c-0.24649,0.89502 5.557617,-1.396973 3.273804,0.332031c0.129211,1.424927 -0.037903,0.123901 4.694611,0.126953c1.936798,0.000977 3.873627,0.003052 5.810394,0.004028c7.843628,0.005005 15.687012,0.005981 23.530518,0.007935c21.663437,0.002075 43.327499,0.01001 64.99144,0.005981c19.284058,-0.00293 38.567017,-0.010986 57.850037,-0.005981c24.658997,0.009033 49.316956,0.028076 73.974976,0.033081c38.718018,0.006958 77.434998,0.005981 116.153015,-0.00708c27.052979,-0.01001 54.106995,-0.017944 81.161102,-0.02002c19.794983,-0.001953 39.588989,0 59.382996,-0.022949c1.539978,-0.001953 4.684998,-0.358032 6.416016,0.477051c0.286987,0.137939 -0.661011,-0.00708 -0.991028,-0.008057c-1.070007,-0.004028 -2.143005,-0.005005 -3.213989,-0.005005c-1.830994,-0.001953 -8.065002,-0.000977 -9.822998,-0.000977c-9.643005,0.000977 -19.288025,0.005005 -28.93103,0.004028c-10.432007,-0.005005 -20.864014,-0.015015 -31.296112,-0.021973c-17.074951,-0.012085 -34.149963,-0.022095 -51.225952,-0.019043c-19.550049,0.015015 -39.103027,0.036987 -58.651001,0.36499c-27.243042,0.520996 -54.467041,1.473999 -81.695007,2.391968c-39.640015,0.852051 -79.304993,0.125977 -118.955017,0.498047c-34.312988,0.156006 -68.644943,0.192993 -102.932968,1.414917c-3.105896,0.155029 -9.767487,0.452026 -13.326385,0.735107c-0.8862,0.070923 -1.767006,0.18396 -2.646919,0.296997c-0.161102,0.020996 -0.62439,0.052002 -0.473389,0.102905c1.493378,0.51001 4.289711,0.454102 5.542,0.51001c14.693085,0.643066 29.370697,1.482056 44.055695,2.241089c9.205002,0.223999 18.424973,0.396973 27.613022,0.872925c7.914978,0.972046 15.695984,2.606079 23.632935,3.478027c18.833008,2.026978 37.742065,3.572021 56.734009,3.998047c4.139038,0.169922 8.269043,0.493896 12.411011,0.586914c9.202026,0.207031 18.423035,-0.170898 27.625977,0.01001c34.617065,0.028076 69.235046,0.049072 103.852051,0.046021c44.427002,-0.006958 88.854004,-0.041992 133.281067,-0.062988c2.562042,0.004028 13.033905,0.001953 16.600983,0.051025c1.140015,0.015991 2.298035,-0.080078 3.416992,0.098999c0.311035,0.049927 0.887024,0.359009 0.676025,0.557007c-0.927979,0.869995 -3.562012,-0.862061 -4.146973,0.464966c-5.638123,0.787964 -10.962036,2.42395 -16.551056,3.368042c-13.562073,2.049927 -27.415039,2.500977 -41.087097,3.825928c-41.849976,3.348022 -83.714966,6.526978 -125.666992,8.873047c-24.91095,1.532959 -49.835938,2.879028 -74.708984,4.812012c-29.114014,2.261963 -14.583008,1.254028 -41.687012,3.713013c-5.576965,0.505981 -11.161987,0.944946 -16.742981,1.417969c-19.336975,1.944946 -38.639954,4.093018 -57.995972,5.894043c-1.298035,0.159912 -2.596985,0.316895 -3.89502,0.480957c-0.794983,0.100952 -1.578979,0.296021 -2.382996,0.312988c-1.453979,0.031006 -2.906006,-0.092041 -4.356995,-0.168945c-0.421997,-0.023071 0.846008,0.00293 1.268982,0.003906c1.90802,0.004028 4.356995,0.004028 6.208008,0.005005c13.210022,0.002075 26.421021,0.02002 39.632019,0.020996c20.085999,0.003052 40.172974,0.002075 60.259949,0.001099c15.617065,0.001953 31.234009,0.012939 46.850037,0.026978c21.522034,0 43.045959,0.011963 64.565002,-0.301025c17.214966,-0.349976 34.411011,-1.01001 51.530029,-2.655029c27.904968,-1.889038 55.945984,-1.986938 83.886963,-3.421997c6.602051,-0.218018 13.202087,-0.480957 19.805084,-0.653931c24.68103,-0.644043 49.432983,-0.644043 74.015991,-2.838989c1.865051,-0.161011 3.735046,-0.279053 5.593994,-0.485107c1.27002,-0.139893 2.506042,-0.467896 3.779053,-0.593994c0.875977,-0.086914 2.322998,0.479004 2.639954,-0.210938c0.748047,-1.630981 -8.346008,2.389038 -6.271973,0c-14.338013,0.006958 -28.674988,0.026978 -43.013,0.018921c-22.382996,-0.032959 -44.767059,-0.187988 -67.143097,-0.680908c-41.273987,-0.950073 -82.530029,-2.37207 -123.72998,-4.69104c-20.272034,-0.927002 -16.497009,-0.925049 -35.236023,-1.192017c-13.554993,-0.19397 -8.335999,0.030029 -19.893982,-0.203003c-1.682983,-0.033936 -3.378052,0.031006 -5.047974,-0.151001c-0.666016,-0.072998 -1.253052,-0.402954 -1.880005,-0.60498c2.891968,-0.562012 0.906006,-0.231934 7.085938,-0.302002c3.921997,-0.043945 7.847046,0.096069 11.769043,0.031982c14.330994,-0.069946 28.676025,-0.265991 42.95697,-1.353027c9.656006,-0.833984 19.240051,-1.802979 28.804016,-3.221924c9.598999,-1.424072 11.802002,-1.979004 21.511963,-3.546021c3.887024,-0.628052 7.787048,-1.199951 11.680054,-1.79895c7.036987,-1.144043 17.822998,-2.946045 24.869995,-3.895996c16.697998,-2.25 33.578979,-3.397095 50.465942,-4.01709c21.966095,-0.23999 43.93515,-0.096924 65.903107,-0.156982c14.208008,-0.015015 28.41803,-0.05896 42.626038,-0.015015c0.412964,0.169067 1.029907,0.165039 1.236938,0.508057c0.131104,0.218994 -0.583984,0.064941 -0.878906,0.084961c-0.791992,0.052979 -1.58606,0.088013 -2.381104,0.134033c-4.370911,0.251953 -8.738953,0.537964 -13.090942,0.978027c-13.541992,1.445923 -26.916992,3.776978 -40.494995,4.993896c-17.862,1.847046 -35.688965,3.960083 -53.672089,4.858032c-28.743042,1.375977 -57.463013,2.971069 -86.158997,4.929077c-48.435974,3.251953 -96.852966,6.695923 -145.305969,9.761963c-18.221069,1.130005 -36.429016,2.406982 -54.662048,3.39502c-25.406982,1.376953 -50.888,1.891968 -76.245972,3.843994c-10.905014,1.185913 -6.874985,0.598999 -15.813522,2.015991c-1.712097,0.271973 -3.540466,0.296997 -5.107056,0.934937c-0.499023,0.203003 1.903809,2.661987 1.442871,0.695068c7.288696,1.091919 14.664673,1.778931 21.967697,2.802979c14.790955,2.01001 29.602966,3.78894 44.578003,4.55896c20.094971,1.087036 40.22699,0.862061 60.356018,0.843018c19.197998,-0.005005 38.395996,-0.006958 57.593994,0.014038c49.607971,0.033936 99.215942,0.049927 148.822998,0.053955c39.862976,0.004028 79.735077,-0.207031 119.593048,0.296021c0.735046,0.197021 1.567993,0.225952 2.205994,0.591064c0.205017,0.11792 -0.416992,0.246948 -0.659973,0.294922c-0.781006,0.155029 -1.586975,0.196045 -2.375977,0.30603c-2.29303,0.319946 -4.564026,0.751953 -6.877014,0.970947c-8.664001,0.01709 -17.328979,0.138062 -25.984985,0.46106c-14.250061,0.620972 -28.447083,1.692017 -42.56308,3.470947c-18.007019,2.171997 -36.098999,3.89502 -54.308044,4.278076c-23.289001,0.662964 -46.575012,1.602936 -69.887024,1.244049c-32.399963,-0.032104 -64.800964,-0.068115 -97.200928,0.020996c-49.621033,0.167969 -99.271057,0.187988 -148.852036,2.017975c-8.688904,0.511963 -15.209473,0.660034 -23.512268,1.83606c-1.58844,0.225952 -3.171448,0.524902 -4.692932,0.967896c-0.373169,0.109009 -1.179199,0.434082 -0.888184,0.657104c2.008423,1.540894 6.30188,-0.072021 8.009094,1.378906c22.986328,1.880981 46.085312,2.520996 69.147263,3.424072c7.907043,0.291016 15.80603,0.762939 23.718994,0.880005c13.518066,0.198975 27.046997,-0.165039 40.565063,0.019897c10.901001,0.082031 21.793945,0.368042 32.670959,0.997986c23.692993,1.140015 47.406006,2.447998 71.151001,2.171021c23.169006,-0.004028 46.338013,-0.018066 69.507996,-0.022949c27.140015,0.001953 54.281006,0.018921 81.421997,0.050903c35.619049,0.048096 71.241119,0.005005 106.857086,0.491089c2.320007,0.076904 4.655029,0.000977 6.959045,0.230957c0.800049,0.079956 1.75,0.176025 2.269043,0.689941c0.281006,0.2771 -0.811035,0.278076 -1.243042,0.327026c-1.367065,0.155029 -2.752014,0.223999 -4.130005,0.283081c-1.944031,0.082886 -12.794006,0.312988 -14.233032,0.344971c-20.664978,0.293945 -41.336975,0.031006 -62.006042,0.121948c-23.519073,0 -47.037994,-0.00293 -70.558014,-0.005005c-27.659058,-0.005981 -55.317993,-0.008911 -82.977051,-0.015015c-34.414978,-0.006958 -68.829956,-0.015015 -103.244995,-0.024902c-36.257996,-0.013062 -72.515991,-0.041016 -108.773987,0.053955c-19.862976,0.084961 -39.792282,-0.170044 -59.60936,1.072021c1.754578,0.991943 0.754578,0.552979 4.008667,1.208984c5.191528,1.045044 10.473328,1.692993 15.768799,2.239014c9.8349,0.978027 19.743881,1.450958 29.648911,1.355957c21.215027,0.001953 42.429993,0 63.645996,0.01001c21.58197,0.021973 43.166992,0.027954 64.746033,0.388092c20.763977,0.424927 41.512939,1.179932 62.271973,1.730957c26.588013,0.000977 53.174988,0 79.763,-0.015015c24.530945,-0.011963 49.062988,-0.026978 73.593994,0.030029c26.300018,0.080933 52.610077,0.109985 78.897064,0.879028c4.251038,0.185913 10.345032,0.35791 14.776001,0.850952c1.44104,0.160034 3.95105,0.147949 4.046021,1.360992c0.046021,0.56604 -2.143005,0.294067 -1.947021,0.5c-4.766968,-0.001953 -9.531006,-0.005981 -14.297974,-0.008911c-13.096008,-0.00708 -26.192993,-0.011108 -39.289978,-0.013062c-18.225037,-0.004028 -36.451141,-0.005981 -54.676117,-0.006958c-22.757996,-0.002075 -45.515015,-0.008057 -68.271973,-0.015015c-30.898071,-0.008057 -61.796021,-0.008057 -92.694031,-0.005981c-35.791992,0.00293 -71.585022,-0.001099 -107.377014,0.005005c-42.069946,0.00293 -84.138962,0.024902 -126.209366,-0.015015c-5.696014,-0.02002 -16.569305,-0.034058 -22.796597,-0.134033c-0.937592,-0.015015 -6.522209,0.238037 -7.630089,-0.786987c-0.973907,-0.900055 9.843983,0.27002 4.254486,-0.78299c10.497601,-1.228027 20.958912,-2.708008 31.50069,-3.647095c8.904022,-0.896027 17.816498,-1.684967 26.80899,-1.382965c10.759888,0.00293 21.519882,0.004028 32.279892,0.005981c11.333008,0.004028 22.665039,-0.003052 33.998047,-0.005005c9.178955,-0.003052 18.356934,-0.001953 27.53595,0.001953c14.71698,0.005005 29.434998,0.009033 44.152039,0.009033c14.70697,0 29.414978,-0.004028 44.122986,-0.006958c12.461975,0.000977 24.924988,0.00293 37.388,0.01001c18.898987,0.000977 37.797974,0.003906 56.697021,0.00293c22.985962,0.000977 45.971924,0.005005 68.958984,0.009033c33.253967,0.005005 66.510101,0.001953 99.765045,0.027954c11.047058,0.018066 22.098022,-0.015991 33.14502,0.127075c0.947021,0.011963 5.613037,-0.293091 6.609985,0.677002c0.202026,0.197021 -0.597961,0.133911 -0.898987,0.200928c-9.224976,0.673126 -18.477966,0.768097 -27.713989,1.282013c-3.518982,0.273071 -7.041016,0.779053 -10.557983,1.019043c-2.064026,0.140015 -4.136047,0.150024 -6.199036,0.270996c-0.514954,0.030029 2.06604,0.000977 1.549988,0c-0.695984,-0.001953 -1.392944,-0.000977 -2.089966,-0.001953c-7.997986,-0.005005 -15.994995,-0.008057 -23.993042,-0.005005c-11.455017,0.005981 -22.910004,0.017944 -34.365082,0.037964c-14,0.006958 -28.001953,0.02002 -42,-0.257935c-20.718994,-0.472046 -41.447998,-1.230103 -62.037964,-3.329132c-21.974976,-2.243896 -43.994019,-4.341919 -66.118042,-5.240967c-24.458008,-1.000977 -48.928955,-0.802979 -73.409973,-1.010986c-25.972961,-0.276001 -51.944031,-0.821045 -77.919983,-0.772949c-28.036011,-0.003052 -56.070969,-0.006104 -84.106308,0.023926c-2.777679,0.004028 -5.555389,0.00708 -8.333099,0.010986c-5.629395,0.009033 -3.725891,0.368042 -7.5438,-0.475952c-0.043701,-0.009033 0.089996,0.005981 0.135101,0.005981c0.526611,0.001953 4.149605,0.003052 4.382301,0.003052c7.224304,0.001953 14.449036,0.005005 21.673401,0.010986c15.184326,0.008911 30.368423,0.015991 45.553391,0.012939c19.294006,-0.000977 38.588989,-0.000977 57.882996,0.002075c20.825012,0.000977 41.648987,0 62.473999,-0.010986c12.098022,-0.004028 24.195984,-0.00708 36.294006,0.018921c14.790039,0.026001 29.580017,0.061035 44.370972,0.083008c11.785034,-0.006958 23.577026,-0.022949 35.329041,-0.88501c36.026978,-2.26593 71.981018,-5.294861 107.845032,-8.941956c30.991974,-3.072998 18.497009,-1.948975 48.772064,-4.507965c6.518005,-0.551056 13.036011,-1.092072 19.555969,-1.633087c6.650024,-0.552002 16.965027,-1.245972 24.041992,-2.270996c1.739014,-0.251953 3.429016,-0.695923 5.141052,-1.043945c0.651978,-0.206055 1.375977,-0.297974 1.95697,-0.618042c0.142029,-0.078003 0.085022,-0.345947 -0.057007,-0.422974c-0.35498,-0.19104 -1.575012,-0.070068 -1.229004,-0.270996c0.522034,-0.301025 1.434021,0.249023 1.89502,-0.113037c0.893005,-0.699951 -4.77002,0.766968 -3.669006,-0.000977c-7.473022,-0.001953 -14.945007,-0.005981 -22.41803,-0.013062c-14.418945,-0.006958 -28.838989,-0.008911 -43.258057,-0.005981c-11.353973,0.002075 -22.709015,0.00708 -34.063019,0.01001c-11.775024,0 -23.549988,-0.01001 -35.324951,-0.012939c-20.126038,-0.008057 -40.253052,-0.004028 -60.379028,-0.003052c-19.695007,-0.000977 -39.389038,-0.001953 -59.083984,-0.005981c-23,-0.003052 -46.001038,-0.001953 -69.001038,0.000977c-20.28302,0.002075 -40.565979,0.000977 -60.848999,-0.00293c-25.161987,-0.005005 -50.323975,-0.005005 -75.485947,0.008911c-18.610291,0.012085 -37.221008,0.034058 -55.831429,0.039063c-3.964813,-0.006958 -7.994286,0.114014 -11.956593,-0.081055c-0.0336,-0.000977 -3.330101,-0.088989 -2.039482,-0.661987c0.474487,-0.210938 1.063072,-0.130981 1.594688,-0.195923c13.915577,-1.114014 27.8634,-1.958008 41.786282,-3.005005c17.827942,-0.847046 35.680466,-0.772095 53.532516,-0.720093c17.940979,0 35.882996,0.010986 53.822998,-0.224976c17.989014,-0.317017 35.964966,-0.958008 53.914001,-2.044922c10.291992,-0.528076 12.638,-0.728027 23.738953,-0.907104c12.16803,-0.194946 24.348022,0.135986 36.518066,-0.008911c12.703003,-0.003052 25.405945,0.01001 38.109985,0.011963c38.187988,-0.005981 76.375977,-0.062988 114.562988,-0.244995c33.40802,-0.190063 66.814056,-0.537964 100.220062,-0.837036c1.01001,-0.00293 2.033997,-0.147949 3.027039,-0.009033c0.234985,0.033081 0.619995,0.389038 0.412964,0.488037c-0.409973,0.197998 -0.947998,-0.001953 -1.422974,-0.00293c-2.744019,-0.004028 -5.484985,-0.001099 -8.229004,-0.005005c-13.100037,-0.01001 -26.200012,-0.012085 -39.301025,-0.019043c-21.816986,-0.006958 -43.634064,-0.010986 -65.45108,-0.010986c-19.067993,0 -38.135986,0.000977 -57.203979,0c-20.812012,-0.002075 -41.624023,0.007935 -62.436035,0.125977c-33.953979,0.218018 -67.906982,0.587036 -101.848999,1.363037c-28.747986,0.589966 -57.492981,0.765015 -86.25,0.643921c-17.437012,0.014038 -34.874985,0.051025 -52.311996,-0.031006c-5.380066,-0.046997 -10.844238,0.06604 -16.214081,-0.302002c-0.838379,-0.056885 -1.713989,-0.052002 -2.49649,-0.309937c-0.2612,-0.087036 -0.568695,-0.473022 -0.365509,-0.63501c0.425629,-0.338989 1.127319,-0.281982 1.690826,-0.421997c9.201904,-1.338989 18.477417,-2.338989 27.752991,-3.236938c5.065308,-0.663086 10.05127,-1.609009 15.115295,-2.269043c6.464951,-0.766968 12.958969,-1.367065 19.380966,-2.374023c2.572998,-0.421997 5.26001,-0.979004 7.878052,-1.156006c4.721985,-0.317993 9.435974,-0.282959 14.164978,-0.259033c14.71698,0.013062 29.434021,0.025024 44.149963,0.036987c15.558044,0.01709 31.116028,0.046021 46.674011,0.065063c23.848999,-0.041992 47.705017,-0.242065 71.529968,-1.222046c32.762085,-1.537964 65.488037,-3.922974 97.730042,-9.237915c23.559998,-3.531006 47.112976,-7.569092 71.105042,-8.286011c20.597992,-0.37207 41.198029,-0.319092 61.801056,-0.295044c3.64801,0 11.77301,0 15.643982,-0.004028c0.77002,-0.000977 5.343018,-0.02002 5.376038,-0.016968c0.390991,0.040039 1.222961,0.180054 1.037964,0.468994c-0.208008,0.323975 -0.880005,-0.020996 -1.31897,-0.031982c-14.123047,-0.194946 -28.252014,-0.371948 -42.364014,-0.956055c-12.325012,-0.590942 -24.605103,-1.644897 -36.939056,-2.06189c-10.098083,-0.275024 -20.206055,-0.047119 -30.307068,-0.133057c-15.605957,-0.006958 -31.211975,-0.016968 -46.817017,-0.036987c-19.69696,-0.02002 -39.393921,-0.05603 -59.090942,0.057983c-23.920044,0.19397 -47.862,0.46106 -71.713013,2.125c-25.231995,1.901001 -50.385986,4.411987 -75.505981,7.156006c-28.687012,2.88501 -57.455017,5.368042 -86.30304,6.803955c-17.315353,0.630981 -34.624557,0.924072 -51.957169,0.77002c-0.529999,0.002075 -2.505798,0.405029 -2.974884,-0.479004c-0.0625,-0.11792 0.308289,0.005005 0.462494,0.005981c0.5242,0.004028 1.048187,0.005981 1.572388,0.008057c1.881012,0.006958 3.761902,0.010986 5.6427,0.017944c12.084991,0.038086 24.170197,0.06604 36.254486,0.015991c34.918015,-0.182007 69.829025,-0.809937 104.735031,-1.564941c39.138977,-0.889038 78.270996,-1.891968 117.401978,-3.016968c18.901001,-0.543091 70.676025,-2.117065 89.731995,-2.560059c13.232971,-0.307983 26.471008,-0.485962 39.705994,-0.729004c41.357025,-0.720947 19.458984,-0.497925 53.203094,-0.605957c4.049988,-0.013062 8.099976,-0.030029 12.150024,-0.055054c1.834961,-0.010986 3.674988,-0.147949 5.506958,-0.052002c0.337036,0.018066 1.231995,0.330078 0.901001,0.389038c-0.820007,0.145996 -1.674988,-0.06897 -2.513,-0.103027c-12.233948,-0.327026 -24.472046,-0.757935 -36.712982,-0.734009c-13.372131,0.02002 -26.74408,0.070068 -40.115051,-0.099976c-24.519043,-0.374023 -49.032043,-1.098999 -73.505005,-2.437012c-18.147034,-1.06897 -15.314026,-0.848999 -33.435059,-2.12793c-14.892944,-1.052002 -29.793945,-2.2771 -44.713013,-3.048096c-3.929932,-0.203003 -7.866943,-0.284912 -11.800964,-0.428955c-20.315979,-0.831055 -40.638977,-1.708984 -60.987,-1.391968c-26.197021,-0.004028 -52.393982,-0.003052 -78.59198,0.004028c-24.064026,0.009888 -48.127609,0.031982 -72.191513,0.016968c-7.468781,-0.015015 -14.939392,-0.00708 -22.407295,-0.112061c-0.174011,-0.00293 -7.32,-0.096924 -8.371086,-0.261963c-0.548794,-0.08606 -1.009914,-0.399048 -1.515011,-0.598022c2.027401,-0.955933 5.914516,-0.969971 7.984791,-1.153931c6.99012,-0.621094 14.004524,-0.968994 21.003609,-1.505005c3.291626,-0.248047 12.31189,-0.947021 15.619507,-1.119019c9.504395,-0.491089 19.046021,-0.406982 28.541977,-1.052979c11.630005,-0.713013 23.243042,-1.412109 34.906982,-1.627075c15.005005,-0.74292 29.967041,-2.026001 44.98999,-2.476929c18.945068,-0.018066 37.892029,-0.057007 56.835022,-0.367065c21.809021,-0.411987 43.617004,-1.016968 65.372009,-2.421021c13.077026,-1.020996 26.091003,-2.583984 39.234985,-2.942993c29.930054,-1.065918 59.903015,-0.355957 89.848999,-0.554932c31.897034,0.001953 63.794098,0.031006 95.691132,-0.111084c1.607971,-0.018921 3.217957,-0.121948 4.823975,-0.057007c0.698975,0.028076 1.367981,0.237061 2.05603,0.337036c0.105957,0.015991 -0.200012,-0.06897 -0.309021,-0.082031c-0.619995,-0.071899 -1.244995,-0.112915 -1.867004,-0.171997c-2.919006,-0.276978 -1.775024,-0.151001 -4.575989,-0.526001c-3.470032,-0.623901 -6.879028,-1.38501 -10.468018,-1.278931c-4.279968,-0.27002 -8.492981,-0.873047 -12.739014,-1.387085c-10.952942,-0.816895 -21.875,-1.929932 -32.851044,-2.534912c-14.083069,-0.249023 -28.171021,-0.067993 -42.256042,-0.125977c-16.974976,-0.005005 -33.948975,-0.008057 -50.922974,-0.00708c-21.112,-0.000977 -42.223999,0.000977 -63.335999,-0.008911c-37.763,-0.014038 -75.525024,-0.019043 -113.288025,-0.023071c-39.940002,-0.007935 -79.880981,0.052979 -119.820175,-0.172974c-1.17041,-0.015991 -11.575806,-0.098999 -14.171387,-0.313965c-0.735229,-0.061035 -3.468384,-0.381104 -2.340942,-0.977051c0.360413,-0.189941 3.999512,-0.733032 4.04541,-0.740967c6.592346,-0.722046 13.166443,-1.549072 19.761108,-2.258057c10.872971,-1.125 21.611008,-3.061035 32.545029,-3.76001c15.635986,-0.801025 31.287964,-0.60498 46.945984,-0.581909c11.360962,0.007935 22.722961,0.03894 34.082947,-0.06311c17.265015,-0.207886 34.534058,-0.618896 51.744019,-1.851929c17.645996,-1.359985 35.217041,-3.252075 52.822021,-4.930054c14.437988,-1.152954 28.973022,-0.292969 43.453979,-0.554932c37.518005,0.017944 75.036011,0.027954 112.554016,0.174927c11.212036,0.06604 22.381073,0.104004 33.589081,0.27002c9.072998,0.134033 18.251038,0.192017 27.289001,0.978027c1.43103,0.124023 2.848022,0.342041 4.27301,0.512939c1.843018,0.717041 3.857971,1.483032 -0.093018,1.68103c-4.143982,0.208008 -8.33197,-0.178955 -12.479004,-0.001953c-9.192993,0.001953 -18.386963,0 -27.581055,-0.002075c-8.478943,-0.000977 -16.958008,0.003052 -25.436005,0.004028c-8.372986,-0.000977 -16.744995,-0.006958 -25.117004,-0.01001c-11.825012,-0.005005 -23.649048,0.002075 -35.473022,0c-14.590942,-0.000977 -29.182007,-0.00293 -43.772949,0.004028c-13.95105,0.008057 -27.902039,0.027954 -41.853027,-0.005005c-10.453003,-0.051025 -20.908997,-0.129028 -31.351013,-0.583984c-5.278015,-0.255005 -10.544006,-0.561035 -15.812988,-0.927979c-1.645996,-0.11499 -3.296021,-0.196045 -4.939026,-0.343018c-0.539978,-0.04895 -1.059937,-0.222046 -1.60199,-0.242065c-1.679993,-0.059937 -3.362976,0.001099 -5.044983,0.002075c-18.863037,0.005981 -37.726013,-0.000977 -56.588989,-0.009033c-39.645996,-0.028931 -79.294006,-0.031982 -118.938889,-0.408936c-7.831116,-0.127075 -19.014038,-0.222046 -27.17041,-0.628052c-1.495911,-0.074951 -7.731689,-0.291992 -9.967499,-1.302002c-1.528595,-0.69104 -0.353516,-1.360962 0.174194,-1.922974c2.510193,-2.112671 5.385101,-3.7948 8.708008,-4.913574c5.805206,-1.774292 11.759491,-3.227905 17.874908,-4.035889c7.515198,-1.044434 15.16571,-1.443604 22.749695,-1.99707c8.468979,0.000366 16.937973,-0.003296 25.406967,-0.001831c11.734985,0.004517 23.470032,0.009766 35.204041,0.009766c12.61499,-0.000854 25.22998,-0.003296 37.843994,-0.005493c10.820984,-0.00293 21.640991,0.001099 32.460907,0.006836c16.588043,0.006836 33.175079,0.01062 49.762054,0.009277c17.059998,-0.00293 34.120056,-0.008179 51.179993,-0.019043c11.434021,-0.009155 22.869019,-0.022461 34.302002,-0.007446c11.488037,0.034424 22.976013,0.123169 34.458984,0.404053c13.213989,0.354248 26.409058,0.94165 39.597046,1.711548c10.661011,-0.001343 21.322021,0.00415 31.981995,0.012085c19.006012,0.009521 38.012054,0.01062 57.016083,-0.003296c5.28302,-0.005005 7.64502,-0.006104 12.630005,-0.015015c1.101013,-0.001953 2.929993,-0.464722 3.84198,0.483276c0.363037,0.375366 -4.127991,-1.214111 -1.730957,-0.003662c-2.842041,0 -5.684021,-0.000732 -8.527039,-0.000122c-2.989014,0.000732 -5.979004,-0.000977 -8.966003,-0.001465c-4.396973,-0.001343 -8.794983,-0.002441 -13.191956,-0.000244c-3.497009,0.001099 -6.994019,0.00293 -10.492004,0c-7.684082,-0.004883 -15.369019,-0.008423 -23.05307,-0.009277c-8.82605,0.000854 -17.651062,0.001343 -26.477051,0.003906c-5.367004,0.001831 -10.734009,0.002319 -16.10199,0.000732c-0.049988,0 0.101013,-0.000244 0.151001,-0.000244c-7.58905,-0.000366 -15.17804,-0.001465 -22.768005,-0.003052c-10.196045,-0.00293 -20.391968,-0.003296 -30.587036,-0.004395c-11.03894,0.001465 -22.076965,0.001953 -33.11499,0.008179c-5.29895,0.003662 -10.597961,0.003052 -15.896973,0.003662c-5.707031,-0.001465 -11.412964,-0.008789 -17.119995,-0.012085c-12.554993,-0.004883 -25.111023,-0.003296 -37.666016,0.003052c-6.661011,0.00354 -13.320984,0.011353 -19.981995,0.008179c-7.987976,-0.001953 -15.97699,-0.005005 -23.965027,-0.004639c-6.186005,0.000732 -12.370972,0.003784 -18.557007,-0.005981c-8.727966,-0.015381 -17.455933,-0.035278 -26.18396,-0.013184c-16.080017,0.041016 -32.167969,0.039307 -48.236023,0.612427c-4.19397,0.225464 -8.386963,0.39502 -12.519958,1.076172c-0.76001,0.125366 -1.505005,0.305298 -2.258057,0.457886c-0.61499,0.140381 -1.219971,0.315918 -1.844971,0.421265c-0.578979,0.097778 -1.171997,0.124756 -1.757996,0.187256c-4.557983,0.584351 -9.119019,0.977783 -13.727966,1.171021c-7.492065,0.478638 -14.996017,0.278198 -22.506088,0.303101c-8.138733,0.000854 -16.277405,0.001099 -24.415955,0.013062c0,0 -3.664185,-0.485107 -3.664185,-0.485107l0,-0.000244l0,0z"/>
    <path stroke-width="0" id="svg_31" fill="url(#svg_27)" d="m405.710907,694.676453a2.178389,0.781151 0 1 1 -4.356812,0a2.178389,0.781151 0 1 1 4.356812,0z"/>
   </g>
  </g>
  <text style="cursor: move;" font-weight="bold" transform="rotate(-5.80782, 1823.92, 1566.47) matrix(13.0639, 0, 0, 27.2699, -4482.68, -40914.9)" xml:space="preserve" text-anchor="start" font-family="'Simonetta', serif" font-size="24" id="svg_38" y="1563.804683" x="358.367364" stroke-width="0" stroke="#000" fill="#FFDFB8">LOCAL   BUSINESSES</text>
 </g>
</svg>