<?xml version="1.0" encoding="UTF-8"?>
<svg width="1044px" height="1445px" viewBox="0 0 1044 1445" version="1.1" xmlns="http://www.w3.org/2000/svg" xmlns:xlink="http://www.w3.org/1999/xlink">
    <!-- Generator: Sketch 42 (36781) - http://www.bohemiancoding.com/sketch -->
    <title>Group 2</title>
    <desc>Created with Sketch.</desc>
    <defs>
        <rect id="path-1" x="0.78125" y="4.54747351e-13" width="858" height="858" rx="100"></rect>
        <mask id="mask-2" maskContentUnits="userSpaceOnUse" maskUnits="objectBoundingBox" x="0" y="0" width="858" height="858" fill="white">
            <use xlink:href="#path-1"></use>
        </mask>
    </defs>
    <g id="Page-2" stroke="none" stroke-width="1" fill="none" fill-rule="evenodd">
        <g id="Group-2">
            <rect id="Rectangle-2" fill-opacity="0.5" fill="#9B9B9B" x="0" y="0" width="1044" height="1445" rx="100"></rect>
            <g id="Group-4" transform="translate(106.000000, 1023.000000)">
                <path d="M132.403376,328.730099 L132.403376,312.023936 C132.403376,305.948968 132.707053,300.785245 133.618086,293.799032 C122.382019,317.795156 100.517242,331.160086 71.6678823,331.160086 C27.3309721,331.160086 1.70530257e-13,300.177749 1.70530257e-13,249.148017 C1.70530257e-13,198.725781 27.938327,166.832199 72.2752373,166.832199 C100.213564,166.832199 121.774664,179.89338 133.618086,203.585756 C132.707053,195.688297 133.921763,10.9349426 132.403376,0 L147.283572,0 C145.765184,10.9349426 147.283572,296.532768 147.283572,296.532768 C147.283572,310.505194 147.890927,317.491408 149.409314,328.730099 L132.403376,328.730099 Z M15.7912283,249.451765 C15.7912283,292.887787 36.1376186,317.795156 71.6678823,317.795156 C109.323888,317.795156 132.707053,291.369045 132.707053,248.844268 C132.707053,206.926988 109.323888,180.197129 72.2752373,180.197129 C37.048651,180.197129 15.7912283,206.319491 15.7912283,249.451765 Z M246.080713,334.709721 C198.707028,334.709721 168.642959,302.816138 168.642959,252.393903 C168.642959,201.667919 198.403351,169.470588 245.169681,169.470588 C291.936011,169.470588 321.696402,201.667919 321.696402,251.786406 C321.696402,302.208641 291.936011,334.709721 246.080713,334.709721 Z M246.050509,182.870588 C207.787148,182.870588 184.403983,209.296699 184.403983,252.428973 C184.403983,294.95375 207.787148,321.076113 245.443154,321.076113 C283.09916,321.076113 305.87497,294.95375 305.87497,251.821476 C305.87497,209.600448 282.795482,182.870588 246.050509,182.870588 Z M376.038413,185.704469 L376.038413,299.512477 C376.038413,309.865763 374.323325,331.047277 374.323325,331.047277 L393.208849,331.047277 C393.208849,331.047277 391.222287,310.021255 391.222287,299.512477 L391.222287,185.704469 L406.40616,185.704469 C420.982678,185.704469 423.971286,186.215334 433.992643,187.734076 L433.992643,170.724165 C423.667609,172.242907 420.982678,172.339539 406.709837,172.339539 L391.222287,172.339539 L391.222287,159.582106 C391.222287,147.43217 389.703899,10.779292 391.222287,1.97058824 L376.038413,1.97058824 C377.556801,11.3867888 376.038413,148.039666 376.038413,159.582106 L376.038413,172.339539 L363.587637,172.339539 C350.225828,172.339539 340.459983,172.242907 332.260691,170.724165 L332.260691,187.734076 C341.97837,186.519082 353.262603,185.704469 363.587637,185.704469 L376.038413,185.704469 Z M468.890469,172.623529 C470.408857,183.254724 471.016212,190.848434 471.016212,204.213364 L471.016212,299.590363 C471.016212,310.525305 470.408857,318.422764 468.890469,331.180197 L488.325827,331.180197 C486.80744,319.637757 486.200085,312.044047 486.200085,299.590363 L486.200085,204.517112 C486.200085,190.544685 486.80744,182.950975 488.325827,172.623529 L468.890469,172.623529 Z M545.303926,172.811821 L527.99431,172.811821 C529.816375,184.35426 530.42373,192.859215 530.42373,204.401655 L530.42373,299.778654 C530.42373,312.232339 529.816375,320.433546 527.99431,331.368488 L547.429668,331.368488 C545.911281,319.826049 545.303926,312.232339 545.303926,299.778654 L545.303926,242.066457 C545.303926,226.879037 557.451024,205.3129 572.634898,193.466712 C581.137867,186.784247 592.981288,182.53177 603.306322,182.53177 C630.637294,182.53177 645.213813,198.022938 645.213813,227.182785 L645.213813,299.778654 C645.213813,311.92859 644.606458,319.826049 643.08807,331.368488 L662.523428,331.368488 C661.005041,321.952288 660.397686,314.662326 660.397686,300.082402 L660.397686,223.841553 C660.397686,189.821731 640.051296,169.470588 606.039419,169.470588 C585.389351,169.470588 569.598123,176.456802 556.539992,191.036725 C550.77012,197.415442 548.037023,201.971668 544.392893,211.08412 C545.000248,205.616648 545.303926,201.667919 545.303926,197.71919 L545.303926,172.811821 Z M755.12784,331.162662 C707.754155,331.162662 677.690086,299.269079 677.690086,248.846844 C677.690086,198.12086 707.450477,165.923529 754.216807,165.923529 C800.983137,165.923529 830.743529,198.12086 830.743529,248.239347 C830.743529,298.661582 800.983137,331.162662 755.12784,331.162662 Z M755.097636,179.323529 C716.834275,179.323529 693.45111,205.749641 693.45111,248.881914 C693.45111,291.406691 716.834275,317.529054 754.490281,317.529054 C792.146287,317.529054 814.922097,291.406691 814.922097,248.274417 C814.922097,206.053389 791.842609,179.323529 755.097636,179.323529 Z" id="dotino" fill="#FFFFFF"></path>
                <ellipse id="Oval-2" stroke="#FFFFFF" stroke-width="5" fill="#FF4444" cx="479.135135" cy="115.082353" rx="19.7012802" ry="19.7058824"></ellipse>
            </g>
            <g id="Group-3" transform="translate(92.000000, 91.000000)" stroke="#FFFFFF">
                <path d="M620.297881,663.044687 L620.297881,671.920618 C622.496786,690.918709 638.639778,705.667425 658.227517,705.667425 C679.316384,705.667425 696.412288,688.57152 696.412288,667.482653 C696.412288,646.393786 679.316384,629.297881 658.227517,629.297881 C638.639778,629.297881 622.496786,644.046596 620.297881,663.044687 Z" id="Combined-Shape" stroke-width="5" fill="#007E33"></path>
                <path d="M468.059576,667.279496 L468.059576,667.68581 C468.16895,688.681205 485.222712,705.667425 506.243819,705.667425 C526.47835,705.667425 543.036886,689.928615 544.34529,670.025129 L544.34529,664.940176 C543.036886,645.036691 526.47835,629.297881 506.243819,629.297881 C485.222712,629.297881 468.16895,646.284101 468.059576,667.279496 Z" id="Combined-Shape" stroke-width="5" fill="#FF8800"></path>
                <path d="M392.614447,664.932141 L392.614447,670.033165 C391.302114,689.93285 374.745313,705.667425 354.513504,705.667425 C333.424637,705.667425 316.328732,688.57152 316.328732,667.482653 C316.328732,646.393786 333.424637,629.297881 354.513504,629.297881 C374.745313,629.297881 391.302114,645.032455 392.614447,664.932141 Z" id="Combined-Shape" stroke-width="5" fill="#00C851"></path>
                <path d="M239.868681,664.932141 L239.868681,670.033165 C238.611941,689.089861 223.374946,704.326856 204.31825,705.583595 L199.217227,705.583595 C179.317541,704.271263 163.582967,687.714461 163.582967,667.482653 C163.582967,646.393786 180.678871,629.297881 201.767738,629.297881 C221.999547,629.297881 238.556348,645.032455 239.868681,664.932141 Z" id="Combined-Shape" stroke-width="5" fill="#FF8800"></path>
                <path d="M620.297881,510.806383 L620.297881,519.682313 C622.496786,538.680404 638.639778,553.42912 658.227517,553.42912 C679.316384,553.42912 696.412288,536.333215 696.412288,515.244348 C696.412288,494.155481 679.316384,477.059576 658.227517,477.059576 C638.639778,477.059576 622.496786,491.808292 620.297881,510.806383 Z" id="Combined-Shape" stroke-width="5" fill="#33B5E5"></path>
                <path d="M392.614447,512.693836 L392.614447,517.79486 C391.302114,537.694545 374.745313,553.42912 354.513504,553.42912 C333.424637,553.42912 316.328732,536.333215 316.328732,515.244348 C316.328732,494.155481 333.424637,477.059576 354.513504,477.059576 C374.745313,477.059576 391.302114,492.79415 392.614447,512.693836 Z" id="Combined-Shape" stroke-width="5" fill="#33B5E5"></path>
                <path d="M239.868681,512.693836 L239.868681,517.79486 C238.611941,536.851556 223.374946,552.088551 204.31825,553.34529 L199.217227,553.34529 C179.317541,552.032958 163.582967,535.476156 163.582967,515.244348 C163.582967,494.155481 180.678871,477.059576 201.767738,477.059576 C221.999547,477.059576 238.556348,492.79415 239.868681,512.693836 Z" id="Combined-Shape" stroke-width="5" fill="#CC0000"></path>
                <path d="M620.297881,358.768844 L620.297881,367.669685 C622.334987,385.319705 636.340298,399.325016 653.990318,401.362122 L658.440738,401.362122 L662.891159,401.362122 C680.541179,399.325016 694.546489,385.319705 696.583595,367.669685 L696.583595,358.768844 C694.377969,339.658722 678.14209,324.821271 658.440738,324.821271 C638.739387,324.821271 622.503507,339.658722 620.297881,358.768844 Z" id="Combined-Shape" stroke-width="5" fill="#007E33"></path>
                <path d="M354.47159,401.106986 C333.405871,401.106986 316.328732,384.029847 316.328732,362.964129 C316.328732,341.89841 333.405871,324.821271 354.47159,324.821271 C375.537308,324.821271 392.614447,341.89841 392.614447,362.964129 C392.614447,384.029847 375.537308,401.106986 354.47159,401.106986 Z" id="Combined-Shape" stroke-width="5" fill="#00C851"></path>
                <path d="M239.868681,360.455531 L239.868681,365.556555 C238.611941,384.613251 223.374946,399.850246 204.31825,401.106986 L199.217227,401.106986 C179.317541,399.794653 163.582967,383.237852 163.582967,363.006043 C163.582967,341.917176 180.678871,324.821271 201.767738,324.821271 C221.999547,324.821271 238.556348,340.555846 239.868681,360.455531 Z" id="Combined-Shape" stroke-width="5" fill="#FFBB33"></path>
                <path d="M544.34529,360.710668 L544.34529,365.811691 C543.088551,384.868387 527.851556,400.105382 508.79486,401.362122 L503.693836,401.362122 C483.79415,400.049789 468.059576,383.492988 468.059576,363.261179 C468.059576,342.172312 485.155481,325.076408 506.244348,325.076408 C526.476156,325.076408 543.032958,340.810982 544.34529,360.710668 Z" id="Combined-Shape" stroke-width="5" fill="#FFBB33"></path>
                <path d="M696.583595,208.217227 L696.583595,213.31825 C695.326856,232.374946 680.089861,247.611941 661.033165,248.868681 L655.932141,248.868681 C636.032455,247.556348 620.297881,230.999547 620.297881,210.767738 C620.297881,189.678871 637.393786,172.582967 658.482653,172.582967 C678.714461,172.582967 695.271263,188.317541 696.583595,208.217227 Z" id="Combined-Shape" stroke-width="5" fill="#0099CC"></path>
                <path d="M544.34529,208.217227 L544.34529,213.31825 C543.088551,232.374946 527.851556,247.611941 508.79486,248.868681 L503.693836,248.868681 C483.79415,247.556348 468.059576,230.999547 468.059576,210.767738 C468.059576,189.678871 485.155481,172.582967 506.244348,172.582967 C526.476156,172.582967 543.032958,188.317541 544.34529,208.217227 Z" id="Combined-Shape" stroke-width="5" fill="#FF4444"></path>
                <path d="M544.34529,512.948972 L544.34529,518.049996 C543.088551,537.106692 527.851556,552.343687 508.79486,553.600427 L503.693836,553.600427 C483.79415,552.288094 468.059576,535.731293 468.059576,515.499484 C468.059576,494.410617 485.155481,477.314712 506.244348,477.314712 C526.476156,477.314712 543.032958,493.049287 544.34529,512.948972 Z" id="Combined-Shape" stroke-width="5" fill="#FF4444"></path>
                <path d="M201.725824,248.868681 C180.660105,248.868681 163.582967,231.791542 163.582967,210.725824 C163.582967,189.660105 180.660105,172.582967 201.725824,172.582967 C222.791542,172.582967 239.868681,189.660105 239.868681,210.725824 C239.868681,231.791542 222.791542,248.868681 201.725824,248.868681 Z" id="Combined-Shape" stroke-width="5" fill="#CC0000"></path>
                <path d="M354.47159,248.868681 C333.405871,248.868681 316.328732,231.791542 316.328732,210.725824 C316.328732,189.660105 333.405871,172.582967 354.47159,172.582967 C375.537308,172.582967 392.614447,189.660105 392.614447,210.725824 C392.614447,231.791542 375.537308,248.868681 354.47159,248.868681 Z" id="Combined-Shape" stroke-width="5" fill="#0099CC"></path>
                <use id="Rectangle-4" mask="url(#mask-2)" stroke-width="40" xlink:href="#path-1"></use>
            </g>
        </g>
    </g>
</svg>