<?xml version="1.0" encoding="UTF-8"?>
<svg width="1259px" height="336px" viewBox="0 0 1259 336" version="1.1" xmlns="http://www.w3.org/2000/svg" xmlns:xlink="http://www.w3.org/1999/xlink">
    <!-- Generator: Sketch 42 (36781) - http://www.bohemiancoding.com/sketch -->
    <title>Group 2</title>
    <desc>Created with Sketch.</desc>
    <defs>
        <rect id="path-1" x="0.305587893" y="0" width="335.608847" height="336" rx="83"></rect>
        <mask id="mask-2" maskContentUnits="userSpaceOnUse" maskUnits="objectBoundingBox" x="0" y="0" width="335.608847" height="336" fill="white">
            <use xlink:href="#path-1"></use>
        </mask>
    </defs>
    <g id="Page-2" stroke="none" stroke-width="1" fill="none" fill-rule="evenodd">
        <g id="Group-2">
            <g id="Group-4" transform="translate(428.000000, 1.000000)">
                <path d="M132.403376,328.730099 L132.403376,312.023936 C132.403376,305.948968 132.707053,300.785245 133.618086,293.799032 C122.382019,317.795156 100.517242,331.160086 71.6678823,331.160086 C27.3309721,331.160086 1.70530257e-13,300.177749 1.70530257e-13,249.148017 C1.70530257e-13,198.725781 27.938327,166.832199 72.2752373,166.832199 C100.213564,166.832199 121.774664,179.89338 133.618086,203.585756 C132.707053,195.688297 133.921763,10.9349426 132.403376,0 L147.283572,0 C145.765184,10.9349426 147.283572,296.532768 147.283572,296.532768 C147.283572,310.505194 147.890927,317.491408 149.409314,328.730099 L132.403376,328.730099 Z M15.7912283,249.451765 C15.7912283,292.887787 36.1376186,317.795156 71.6678823,317.795156 C109.323888,317.795156 132.707053,291.369045 132.707053,248.844268 C132.707053,206.926988 109.323888,180.197129 72.2752373,180.197129 C37.048651,180.197129 15.7912283,206.319491 15.7912283,249.451765 Z M246.080713,334.709721 C198.707028,334.709721 168.642959,302.816138 168.642959,252.393903 C168.642959,201.667919 198.403351,169.470588 245.169681,169.470588 C291.936011,169.470588 321.696402,201.667919 321.696402,251.786406 C321.696402,302.208641 291.936011,334.709721 246.080713,334.709721 Z M246.050509,182.870588 C207.787148,182.870588 184.403983,209.296699 184.403983,252.428973 C184.403983,294.95375 207.787148,321.076113 245.443154,321.076113 C283.09916,321.076113 305.87497,294.95375 305.87497,251.821476 C305.87497,209.600448 282.795482,182.870588 246.050509,182.870588 Z M376.038413,185.704469 L376.038413,299.512477 C376.038413,309.865763 374.323325,331.047277 374.323325,331.047277 L393.208849,331.047277 C393.208849,331.047277 391.222287,310.021255 391.222287,299.512477 L391.222287,185.704469 L406.40616,185.704469 C420.982678,185.704469 423.971286,186.215334 433.992643,187.734076 L433.992643,170.724165 C423.667609,172.242907 420.982678,172.339539 406.709837,172.339539 L391.222287,172.339539 L391.222287,159.582106 C391.222287,147.43217 389.703899,10.779292 391.222287,1.97058824 L376.038413,1.97058824 C377.556801,11.3867888 376.038413,148.039666 376.038413,159.582106 L376.038413,172.339539 L363.587637,172.339539 C350.225828,172.339539 340.459983,172.242907 332.260691,170.724165 L332.260691,187.734076 C341.97837,186.519082 353.262603,185.704469 363.587637,185.704469 L376.038413,185.704469 Z M468.890469,172.623529 C470.408857,183.254724 471.016212,190.848434 471.016212,204.213364 L471.016212,299.590363 C471.016212,310.525305 470.408857,318.422764 468.890469,331.180197 L488.325827,331.180197 C486.80744,319.637757 486.200085,312.044047 486.200085,299.590363 L486.200085,204.517112 C486.200085,190.544685 486.80744,182.950975 488.325827,172.623529 L468.890469,172.623529 Z M545.303926,172.811821 L527.99431,172.811821 C529.816375,184.35426 530.42373,192.859215 530.42373,204.401655 L530.42373,299.778654 C530.42373,312.232339 529.816375,320.433546 527.99431,331.368488 L547.429668,331.368488 C545.911281,319.826049 545.303926,312.232339 545.303926,299.778654 L545.303926,242.066457 C545.303926,226.879037 557.451024,205.3129 572.634898,193.466712 C581.137867,186.784247 592.981288,182.53177 603.306322,182.53177 C630.637294,182.53177 645.213813,198.022938 645.213813,227.182785 L645.213813,299.778654 C645.213813,311.92859 644.606458,319.826049 643.08807,331.368488 L662.523428,331.368488 C661.005041,321.952288 660.397686,314.662326 660.397686,300.082402 L660.397686,223.841553 C660.397686,189.821731 640.051296,169.470588 606.039419,169.470588 C585.389351,169.470588 569.598123,176.456802 556.539992,191.036725 C550.77012,197.415442 548.037023,201.971668 544.392893,211.08412 C545.000248,205.616648 545.303926,201.667919 545.303926,197.71919 L545.303926,172.811821 Z M755.12784,331.162662 C707.754155,331.162662 677.690086,299.269079 677.690086,248.846844 C677.690086,198.12086 707.450477,165.923529 754.216807,165.923529 C800.983137,165.923529 830.743529,198.12086 830.743529,248.239347 C830.743529,298.661582 800.983137,331.162662 755.12784,331.162662 Z M755.097636,179.323529 C716.834275,179.323529 693.45111,205.749641 693.45111,248.881914 C693.45111,291.406691 716.834275,317.529054 754.490281,317.529054 C792.146287,317.529054 814.922097,291.406691 814.922097,248.274417 C814.922097,206.053389 791.842609,179.323529 755.097636,179.323529 Z" id="dotino" fill="#FFFFFF"></path>
                <ellipse id="Oval-2" stroke="#FFFFFF" stroke-width="5" fill="#FF4444" cx="479.135135" cy="115.082353" rx="19.7012802" ry="19.7058824"></ellipse>
            </g>
            <g id="Group-3" stroke="#FFFFFF">
                <path d="M242.631069,259.653864 L242.631069,263.129753 C243.491176,270.569564 249.805548,276.345285 257.467341,276.345285 C265.716304,276.345285 272.40341,269.650385 272.40341,261.391808 C272.40341,253.133231 265.716304,246.438331 257.467341,246.438331 C249.805548,246.438331 243.491176,252.214052 242.631069,259.653864 Z" id="Combined-Shape" stroke-width="5" fill="#007E33"></path>
                <path d="M183.082675,261.31225 L183.082675,261.471366 C183.125456,269.693339 189.796078,276.345285 198.018537,276.345285 C205.933324,276.345285 212.410237,270.181835 212.922023,262.387463 L212.922023,260.396153 C212.410237,252.601781 205.933324,246.438331 198.018537,246.438331 C189.796078,246.438331 183.125456,253.090277 183.082675,261.31225 Z" id="Combined-Shape" stroke-width="5" fill="#FF8800"></path>
                <path d="M153.572123,260.393006 L153.572123,262.39061 C153.058801,270.183494 146.582567,276.345285 138.668844,276.345285 C130.419881,276.345285 123.732775,269.650385 123.732775,261.391808 C123.732775,253.133231 130.419881,246.438331 138.668844,246.438331 C146.582567,246.438331 153.058801,252.600122 153.572123,260.393006 Z" id="Combined-Shape" stroke-width="5" fill="#00C851"></path>
                <path d="M93.8252349,260.393006 L93.8252349,262.39061 C93.3336581,269.853372 87.3736694,275.820307 79.9195949,276.312457 L77.9243168,276.312457 C70.1405049,275.798537 63.9858868,269.314754 63.9858868,261.391808 C63.9858868,253.133231 70.6729927,246.438331 78.9219558,246.438331 C86.8356783,246.438331 93.3119128,252.600122 93.8252349,260.393006 Z" id="Combined-Shape" stroke-width="5" fill="#FF8800"></path>
                <path d="M242.631069,200.036066 L242.631069,203.511955 C243.491176,210.951767 249.805548,216.727487 257.467341,216.727487 C265.716304,216.727487 272.40341,210.032588 272.40341,201.77401 C272.40341,193.515433 265.716304,186.820533 257.467341,186.820533 C249.805548,186.820533 243.491176,192.596254 242.631069,200.036066 Z" id="Combined-Shape" stroke-width="5" fill="#33B5E5"></path>
                <path d="M153.572123,200.775209 L153.572123,202.772812 C153.058801,210.565696 146.582567,216.727487 138.668844,216.727487 C130.419881,216.727487 123.732775,210.032588 123.732775,201.77401 C123.732775,193.515433 130.419881,186.820533 138.668844,186.820533 C146.582567,186.820533 153.058801,192.982325 153.572123,200.775209 Z" id="Combined-Shape" stroke-width="5" fill="#33B5E5"></path>
                <path d="M93.8252349,200.775209 L93.8252349,202.772812 C93.3336581,210.235574 87.3736694,216.202509 79.9195949,216.694659 L77.9243168,216.694659 C70.1405049,216.180739 63.9858868,209.696956 63.9858868,201.77401 C63.9858868,193.515433 70.6729927,186.820533 78.9219558,186.820533 C86.8356783,186.820533 93.3119128,192.982325 93.8252349,200.775209 Z" id="Combined-Shape" stroke-width="5" fill="#CC0000"></path>
                <path d="M242.631069,140.49689 L242.631069,143.982534 C243.427888,150.89443 248.9061,156.379027 255.80995,157.176775 L257.550743,157.176775 L259.291536,157.176775 C266.195385,156.379027 271.673598,150.89443 272.470417,143.982534 L272.470417,140.49689 C271.607681,133.013206 265.256976,127.202736 257.550743,127.202736 C249.84451,127.202736 243.493805,133.013206 242.631069,140.49689 Z" id="Combined-Shape" stroke-width="5" fill="#007E33"></path>
                <path d="M138.652449,157.076862 C130.412541,157.076862 123.732775,150.389311 123.732775,142.139799 C123.732775,133.890287 130.412541,127.202736 138.652449,127.202736 C146.892358,127.202736 153.572123,133.890287 153.572123,142.139799 C153.572123,150.389311 146.892358,157.076862 138.652449,157.076862 Z" id="Combined-Shape" stroke-width="5" fill="#00C851"></path>
                <path d="M93.8252349,141.157411 L93.8252349,143.155014 C93.3336581,150.617777 87.3736694,156.584712 79.9195949,157.076862 L77.9243168,157.076862 C70.1405049,156.562941 63.9858868,150.079159 63.9858868,142.156213 C63.9858868,133.897635 70.6729927,127.202736 78.9219558,127.202736 C86.8356783,127.202736 93.3119128,133.364527 93.8252349,141.157411 Z" id="Combined-Shape" stroke-width="5" fill="#FFBB33"></path>
                <path d="M212.922023,141.257324 L212.922023,143.254928 C212.430446,150.71769 206.470457,156.684625 199.016383,157.176775 L197.021105,157.176775 C189.237293,156.662855 183.082675,150.179072 183.082675,142.256126 C183.082675,133.997549 189.769781,127.302649 198.018744,127.302649 C205.932466,127.302649 212.408701,133.46444 212.922023,141.257324 Z" id="Combined-Shape" stroke-width="5" fill="#FFBB33"></path>
                <path d="M272.470417,81.5396132 L272.470417,83.5372168 C271.97884,90.999979 266.018851,96.9669141 258.564777,97.4590638 L256.569499,97.4590638 C248.785687,96.9451434 242.631069,90.4613609 242.631069,82.538415 C242.631069,74.2798377 249.318175,67.5849379 257.567138,67.5849379 C265.48086,67.5849379 271.957095,73.7467292 272.470417,81.5396132 Z" id="Combined-Shape" stroke-width="5" fill="#0099CC"></path>
                <path d="M212.922023,81.5396132 L212.922023,83.5372168 C212.430446,90.999979 206.470457,96.9669141 199.016383,97.4590638 L197.021105,97.4590638 C189.237293,96.9451434 183.082675,90.4613609 183.082675,82.538415 C183.082675,74.2798377 189.769781,67.5849379 198.018744,67.5849379 C205.932466,67.5849379 212.408701,73.7467292 212.922023,81.5396132 Z" id="Combined-Shape" stroke-width="5" fill="#FF4444"></path>
                <path d="M212.922023,200.875122 L212.922023,202.872726 C212.430446,210.335488 206.470457,216.302423 199.016383,216.794573 L197.021105,216.794573 C189.237293,216.280652 183.082675,209.79687 183.082675,201.873924 C183.082675,193.615347 189.769781,186.920447 198.018744,186.920447 C205.932466,186.920447 212.408701,193.082238 212.922023,200.875122 Z" id="Combined-Shape" stroke-width="5" fill="#FF4444"></path>
                <path d="M78.9055608,97.4590638 C70.6656524,97.4590638 63.9858868,90.7715129 63.9858868,82.5220009 C63.9858868,74.2724888 70.6656524,67.5849379 78.9055608,67.5849379 C87.1454693,67.5849379 93.8252349,74.2724888 93.8252349,82.5220009 C93.8252349,90.7715129 87.1454693,97.4590638 78.9055608,97.4590638 Z" id="Combined-Shape" stroke-width="5" fill="#CC0000"></path>
                <path d="M138.652449,97.4590638 C130.412541,97.4590638 123.732775,90.7715129 123.732775,82.5220009 C123.732775,74.2724888 130.412541,67.5849379 138.652449,67.5849379 C146.892358,67.5849379 153.572123,74.2724888 153.572123,82.5220009 C153.572123,90.7715129 146.892358,97.4590638 138.652449,97.4590638 Z" id="Combined-Shape" stroke-width="5" fill="#0099CC"></path>
                <use id="Rectangle-4" mask="url(#mask-2)" stroke-width="40" xlink:href="#path-1"></use>
            </g>
        </g>
    </g>
</svg>