<?xml version="1.0" encoding="UTF-8"?>
<svg width="3566px" height="4296px" viewBox="0 0 3566 4296" version="1.1" xmlns="http://www.w3.org/2000/svg" xmlns:xlink="http://www.w3.org/1999/xlink">
    <!-- Generator: Sketch 42 (36781) - http://www.bohemiancoding.com/sketch -->
    <title>Group 2</title>
    <desc>Created with Sketch.</desc>
    <defs>
        <rect id="path-1" x="0.794677371" y="0" width="872.746476" height="874" rx="83"></rect>
        <mask id="mask-2" maskContentUnits="userSpaceOnUse" maskUnits="objectBoundingBox" x="0" y="0" width="872.746476" height="874" fill="white">
            <use xlink:href="#path-1"></use>
        </mask>
    </defs>
    <g id="Page-2" stroke="none" stroke-width="1" fill="none" fill-rule="evenodd">
        <g id="Group-2">
            <rect id="Rectangle-3" fill-opacity="0.5" fill="#000000" x="0" y="1445" width="3566" height="2851" rx="300"></rect>
            <g id="Group-4" transform="translate(1257.008476, 2.601190)">
                <path d="M344.31327,855.089602 L344.31327,811.633692 C344.31327,795.831543 345.102979,782.399716 347.472107,764.227244 C318.252862,826.645733 261.39379,861.410462 186.371403,861.410462 C71.0738401,861.410462 -2.27373675e-13,780.819501 -2.27373675e-13,648.081448 C-2.27373675e-13,516.92361 72.6532588,433.962327 187.950822,433.962327 C260.60408,433.962327 316.673443,467.936947 347.472107,529.565329 C345.102979,509.022535 348.261817,28.4438685 344.31327,0 L383.009027,0 C379.060481,28.4438685 383.009027,771.338211 383.009027,771.338211 C383.009027,807.683154 384.588446,825.855626 388.536993,855.089602 L344.31327,855.089602 Z M41.0648854,648.871555 C41.0648854,761.856922 93.9754108,826.645733 186.371403,826.645733 C284.29536,826.645733 345.102979,757.906385 345.102979,647.29134 C345.102979,538.256511 284.29536,468.727055 187.950822,468.727055 C96.3445388,468.727055 41.0648854,536.676296 41.0648854,648.871555 Z M639.929718,870.643738 C516.735062,870.643738 438.553838,787.682454 438.553838,656.524616 C438.553838,524.576671 515.945352,440.82528 637.56059,440.82528 C759.175827,440.82528 836.567342,524.576671 836.567342,654.944401 C836.567342,786.102239 759.175827,870.643738 639.929718,870.643738 Z M639.851173,475.681232 C540.347796,475.681232 479.540178,544.420581 479.540178,656.61584 C479.540178,767.230885 540.347796,835.180126 638.271754,835.180126 C736.195711,835.180126 795.423911,767.230885 795.423911,655.035626 C795.423911,545.210689 735.406002,475.681232 639.851173,475.681232 Z M977.88304,483.052695 L977.88304,779.089003 C977.88304,806.019871 973.422974,861.117024 973.422974,861.117024 L1022.53454,861.117024 C1022.53454,861.117024 1017.36851,806.424335 1017.36851,779.089003 L1017.36851,483.052695 L1056.85397,483.052695 C1094.76002,483.052695 1102.53186,484.381553 1128.59227,488.33209 L1128.59227,444.086073 C1101.74215,448.03661 1094.76002,448.287967 1057.64368,448.287967 L1017.36851,448.287967 L1017.36851,415.103454 C1017.36851,383.499155 1013.41996,28.0389916 1017.36851,5.12587535 L977.88304,5.12587535 C981.831587,29.6192066 977.88304,385.07937 977.88304,415.103454 L977.88304,448.287967 L945.504957,448.287967 C910.757747,448.287967 885.361791,448.03661 864.039639,444.086073 L864.039639,488.33209 C889.310337,485.17166 918.65484,483.052695 945.504957,483.052695 L977.88304,483.052695 Z M1219.34361,449.026681 C1223.29216,476.680442 1224.87158,496.433128 1224.87158,531.197856 L1224.87158,779.291598 C1224.87158,807.735467 1223.29216,828.278261 1219.34361,861.462774 L1269.88501,861.462774 C1265.93646,831.438691 1264.35705,811.686004 1264.35705,779.291598 L1264.35705,531.987964 C1264.35705,495.643021 1265.93646,475.890334 1269.88501,449.026681 L1219.34361,449.026681 Z M1418.05582,449.516462 L1373.04239,449.516462 C1377.78064,479.540546 1379.36006,501.663554 1379.36006,531.687638 L1379.36006,779.78138 C1379.36006,812.175786 1377.78064,833.508687 1373.04239,861.952555 L1423.58379,861.952555 C1419.63524,831.928472 1418.05582,812.175786 1418.05582,779.78138 L1418.05582,629.660963 C1418.05582,590.15559 1449.64419,534.05796 1489.12966,503.243769 C1511.24152,485.861405 1542.04019,474.799901 1568.8903,474.799901 C1639.96414,474.799901 1677.87019,515.095381 1677.87019,590.945697 L1677.87019,779.78138 C1677.87019,811.385678 1676.29077,831.928472 1672.34223,861.952555 L1722.88362,861.952555 C1718.93508,837.459224 1717.35566,818.496645 1717.35566,780.571487 L1717.35566,582.254515 C1717.35566,493.76248 1664.44513,440.82528 1575.99769,440.82528 C1522.29745,440.82528 1481.23257,458.997752 1447.27507,496.92291 C1432.27059,513.515166 1425.1632,525.366778 1415.68669,549.070002 C1417.26611,534.848068 1418.05582,524.576671 1418.05582,514.305274 L1418.05582,449.516462 Z M1963.7002,861.417162 C1840.50554,861.417162 1762.32432,778.455879 1762.32432,647.298041 C1762.32432,515.350095 1839.71584,431.598704 1961.33107,431.598704 C2082.94631,431.598704 2160.33783,515.350095 2160.33783,645.717826 C2160.33783,776.875664 2082.94631,861.417162 1963.7002,861.417162 Z M1963.62166,466.454657 C1864.11828,466.454657 1803.31066,535.194006 1803.31066,647.389265 C1803.31066,758.004309 1864.11828,825.95355 1962.04224,825.95355 C2059.96619,825.95355 2119.19439,758.004309 2119.19439,645.80905 C2119.19439,535.984113 2059.17649,466.454657 1963.62166,466.454657 Z" id="dotino" fill="#FFFFFF"></path>
                <ellipse id="Oval-2" stroke="#FFFFFF" stroke-width="5" fill="#FF4444" cx="1245.98473" cy="299.35112" rx="51.232925" ry="51.2587535"></ellipse>
            </g>
            <g id="Group-3" transform="translate(144.000000, 0.000000)" stroke="#FFFFFF">
                <path d="M630.958963,675.409157 L630.958963,684.450606 C633.19566,703.802974 649.616102,718.826724 669.540496,718.826724 C690.991818,718.826724 708.381551,701.412014 708.381551,679.929882 C708.381551,658.447749 690.991818,641.03304 669.540496,641.03304 C649.616102,641.03304 633.19566,656.056789 630.958963,675.409157 Z" id="Combined-Shape" stroke-width="5" fill="#007E33"></path>
                <path d="M476.104133,679.722936 L476.104133,680.136827 C476.215386,701.523745 493.562252,718.826724 514.944649,718.826724 C535.526952,718.826724 552.37008,702.794416 553.700972,682.51977 L553.700972,677.339993 C552.37008,657.065347 535.526952,641.03304 514.944649,641.03304 C493.562252,641.03304 476.215386,658.336019 476.104133,679.722936 Z" id="Combined-Shape" stroke-width="5" fill="#FF8800"></path>
                <path d="M399.362325,677.331808 L399.362325,682.527955 C398.027438,702.798731 381.186073,718.826724 360.60654,718.826724 C339.155218,718.826724 321.765485,701.412014 321.765485,679.929882 C321.765485,658.447749 339.155218,641.03304 360.60654,641.03304 C381.186073,641.03304 398.027438,657.061033 399.362325,677.331808 Z" id="Combined-Shape" stroke-width="5" fill="#00C851"></path>
                <path d="M243.991312,677.331808 L243.991312,682.527955 C242.712973,701.940022 227.2141,717.461156 207.829875,718.741331 L202.64118,718.741331 C182.399478,717.404527 166.394473,700.538973 166.394473,679.929882 C166.394473,658.447749 183.784205,641.03304 205.235528,641.03304 C225.815061,641.03304 242.656425,657.061033 243.991312,677.331808 Z" id="Combined-Shape" stroke-width="5" fill="#FF8800"></path>
                <path d="M630.958963,520.33191 L630.958963,529.373359 C633.19566,548.725727 649.616102,563.749476 669.540496,563.749476 C690.991818,563.749476 708.381551,546.334767 708.381551,524.852634 C708.381551,503.370501 690.991818,485.955792 669.540496,485.955792 C649.616102,485.955792 633.19566,500.979542 630.958963,520.33191 Z" id="Combined-Shape" stroke-width="5" fill="#33B5E5"></path>
                <path d="M399.362325,522.25456 L399.362325,527.450708 C398.027438,547.721483 381.186073,563.749476 360.60654,563.749476 C339.155218,563.749476 321.765485,546.334767 321.765485,524.852634 C321.765485,503.370501 339.155218,485.955792 360.60654,485.955792 C381.186073,485.955792 398.027438,501.983785 399.362325,522.25456 Z" id="Combined-Shape" stroke-width="5" fill="#33B5E5"></path>
                <path d="M243.991312,522.25456 L243.991312,527.450708 C242.712973,546.862774 227.2141,562.383909 207.829875,563.664084 L202.64118,563.664084 C182.399478,562.327279 166.394473,545.461726 166.394473,524.852634 C166.394473,503.370501 183.784205,485.955792 205.235528,485.955792 C225.815061,485.955792 242.656425,501.983785 243.991312,522.25456 Z" id="Combined-Shape" stroke-width="5" fill="#CC0000"></path>
                <path d="M630.958963,365.459172 L630.958963,374.525996 C633.031081,392.505154 647.277101,406.771636 665.230472,408.84673 L669.757382,408.84673 L674.284292,408.84673 C692.237664,406.771636 706.483684,392.505154 708.555802,374.525996 L708.555802,365.459172 C706.312268,345.992685 689.797342,330.878544 669.757382,330.878544 C649.717423,330.878544 633.202497,345.992685 630.958963,365.459172 Z" id="Combined-Shape" stroke-width="5" fill="#007E33"></path>
                <path d="M360.563905,408.586836 C339.13613,408.586836 321.765485,391.191243 321.765485,369.73269 C321.765485,348.274138 339.13613,330.878544 360.563905,330.878544 C381.991681,330.878544 399.362325,348.274138 399.362325,369.73269 C399.362325,391.191243 381.991681,408.586836 360.563905,408.586836 Z" id="Combined-Shape" stroke-width="5" fill="#00C851"></path>
                <path d="M243.991312,367.177313 L243.991312,372.37346 C242.712973,391.785526 227.2141,407.306661 207.829875,408.586836 L202.64118,408.586836 C182.399478,407.250031 166.394473,390.384478 166.394473,369.775387 C166.394473,348.293254 183.784205,330.878544 205.235528,330.878544 C225.815061,330.878544 242.656425,346.906537 243.991312,367.177313 Z" id="Combined-Shape" stroke-width="5" fill="#FFBB33"></path>
                <path d="M553.700972,367.437207 L553.700972,372.633354 C552.422633,392.04542 536.92376,407.566555 517.539535,408.84673 L512.35084,408.84673 C492.109138,407.509925 476.104133,390.644372 476.104133,370.035281 C476.104133,348.553148 493.493865,331.138438 514.945187,331.138438 C535.524721,331.138438 552.366085,347.166431 553.700972,367.437207 Z" id="Combined-Shape" stroke-width="5" fill="#FFBB33"></path>
                <path d="M708.555802,212.100065 L708.555802,217.296213 C707.277463,236.708279 691.778589,252.229413 672.394365,253.509589 L667.20567,253.509589 C646.963968,252.172784 630.958963,235.307231 630.958963,214.698139 C630.958963,193.216006 648.348695,175.801297 669.800017,175.801297 C690.379551,175.801297 707.220915,191.82929 708.555802,212.100065 Z" id="Combined-Shape" stroke-width="5" fill="#0099CC"></path>
                <path d="M553.700972,212.100065 L553.700972,217.296213 C552.422633,236.708279 536.92376,252.229413 517.539535,253.509589 L512.35084,253.509589 C492.109138,252.172784 476.104133,235.307231 476.104133,214.698139 C476.104133,193.216006 493.493865,175.801297 514.945187,175.801297 C535.524721,175.801297 552.366085,191.82929 553.700972,212.100065 Z" id="Combined-Shape" stroke-width="5" fill="#FF4444"></path>
                <path d="M553.700972,522.514454 L553.700972,527.710602 C552.422633,547.122668 536.92376,562.643803 517.539535,563.923978 L512.35084,563.923978 C492.109138,562.587173 476.104133,545.72162 476.104133,525.112528 C476.104133,503.630395 493.493865,486.215686 514.945187,486.215686 C535.524721,486.215686 552.366085,502.243679 553.700972,522.514454 Z" id="Combined-Shape" stroke-width="5" fill="#FF4444"></path>
                <path d="M205.192893,253.509589 C183.765117,253.509589 166.394473,236.113995 166.394473,214.655443 C166.394473,193.196891 183.765117,175.801297 205.192893,175.801297 C226.620668,175.801297 243.991312,193.196891 243.991312,214.655443 C243.991312,236.113995 226.620668,253.509589 205.192893,253.509589 Z" id="Combined-Shape" stroke-width="5" fill="#CC0000"></path>
                <path d="M360.563905,253.509589 C339.13613,253.509589 321.765485,236.113995 321.765485,214.655443 C321.765485,193.196891 339.13613,175.801297 360.563905,175.801297 C381.991681,175.801297 399.362325,193.196891 399.362325,214.655443 C399.362325,236.113995 381.991681,253.509589 360.563905,253.509589 Z" id="Combined-Shape" stroke-width="5" fill="#0099CC"></path>
                <use id="Rectangle-4" mask="url(#mask-2)" stroke-width="40" xlink:href="#path-1"></use>
            </g>
            <text id="RESTAURANTS-when-the" font-family="Chalkduster" font-size="420" font-weight="normal">
                <tspan x="1783" y="1436" fill="#FFFFFF"></tspan>
                <tspan x="168.436464" y="1967" fill="#FFFFFF">RESTAURANTS</tspan>
                <tspan x="3397.56354" y="1967" font-size="350" fill="#FFFFFF"></tspan>
                <tspan x="404.077348" y="2498" font-size="350" fill="#9B9B9B">when they are</tspan>
                <tspan x="3161.92265" y="2498" font-size="350" fill="#FFFFFF"></tspan>
                <tspan x="151.232044" y="2940" font-size="500" fill="#417505">MENTIONED</tspan>
                <tspan x="3414.76796" y="2940" font-size="350" fill="#FFFFFF"></tspan>
                <tspan x="147.475138" y="3571" font-size="350" fill="#9B9B9B">not when they’re</tspan>
                <tspan x="144.546961" y="4013" font-size="550" fill="#D0011B">MARKETED</tspan>
            </text>
        </g>
    </g>
</svg>